<?xml version="1.0" encoding="UTF-8"?><svg id="a" xmlns="http://www.w3.org/2000/svg" viewBox="0 0 1599.01 897.21"><defs><style>.b{fill:none;}</style></defs><rect class="b" width="789.74" height="846.15"/><g><path d="M1279.99,772.51c-3.78,4.43-7.18,8.75-10.92,12.74-13.57,14.46-31.06,21.48-49.99,24.97-10.28,1.9-20.89,3.19-31.32,2.96-27.31-.61-53.75-6.15-79.02-16.79-1.34-.56-2.53-1.49-3.8-2.21-1.12-.64-2.27-1.22-3.78-2.03-8.29,28.56-11.45,57.48-12.79,88.27-1.21-2.01-2.56-3.22-2.53-4.39,.15-7.26,.37-14.54,1.04-21.77,.65-6.99,1.83-13.93,2.85-20.88,.85-5.81,2-11.58,2.61-17.41,.2-1.9-.31-4.58-1.56-5.78-2.29-2.18-4.54-5.06-8.91-2.98-4.3,2.04-7.04,4.06-6.29,9.46,.59,4.24,.12,8.62,.12,13.31-5.55,1.47-10.96,3.1-16.47,4.2-1.21,.24-3.39-1.01-4.1-2.2-2.17-3.64-4.12-7.47-5.63-11.42-1.71-4.49-5.31-2.84-8.37-3.21-2.78-.34-4.46,.52-5.59,3.33-1.21,3-3.54,5.56-4.66,8.58-1.75,4.69-4.42,5.18-8.65,3.36-3.26-1.41-6.75-2.52-10.24-3.09-3.45-.57-3.3-2.68-3.08-5.07,.24-2.6,.39-5.23,.96-7.76,1.43-6.37-2.29-9.32-7.34-11.3-1.14-.45-2.85-.43-3.92,.12-2.89,1.48-5.61,3.3-8.35,5.08-6.02,3.91-6.38,3.92-10.99-1.32-2.81-3.2-5.53-6.5-8.44-9.93,2.54-3.69,5.29-7.34,7.64-11.23,1.33-2.21,2.67-4.3,1.21-7.57-2.19-4.89-4.97-6.92-10.42-6.26-4.04,.49-9.33,1.23-12.01-.83-2.54-1.95-2.04-7.53-3.53-11.25-2-4.98-.9-7.89,4.2-9.82,3.94-1.49,7.6-3.74,11.61-5.77-.21-.73-.66-1.41-.49-1.86,3.39-9.28-4.29-11.07-9.72-14.09-6.84-3.8-6.91-3.6-4.47-11.25,1.18-3.69,2.21-7.42,3.23-10.88,4.46,0,8.44-.43,12.28,.1,5.65,.78,9.09-1.33,10.66-6.61,.42-1.42,.79-3.33,.18-4.48-2.07-3.87-4.79-7.39-6.84-11.27-.65-1.23-.26-3.23,.18-4.72,.29-.98,1.54-1.69,2.36-2.51q9.79-9.83,21.17-2.43c6.39,4.12,2.95,4.13,14.91-1.61-.37-4.68-.66-9.58-1.19-14.45-.41-3.78,1.39-5.41,4.88-5.97,4.94-.8,10.75-3.79,14.52-2.11,3.53,1.58,5.39,7.83,7.09,12.37,2.3,6.12,7.1,3.41,10.84,3.38,.9,0,2.38-4.05,2.55-6.31,.88-12.16,1.44-24.35,2.08-36.53,.06-1.14-.12-2.28-.29-4.99-1.76,2.07-3.27,3.07-3.61,4.38-.85,3.29-.12,7.66-2.03,9.82-1.87,2.11-6.22,2.03-9.35,2.88-4.2-2.81-2.56-11.91-11.33-9.53-.14,.29-.4,.85-.69,1.4-4.24,8.2-6.47,9.14-14.71,4.96-1.31-.66-2.34-4.33-1.71-5.91,1.91-4.81-.27-6.99-4.41-8.77-.65,.51-1.36,1.19-2.18,1.69-6.94,4.19-10.19,3.48-14.7-3.44-.55-.85-.52-2.48-.11-3.47,.74-1.78,2.4-3.24,2.88-5.05,.52-1.96,.77-4.52-.11-6.14-.58-1.06-3.49-1.52-5.15-1.2-6.36,1.22-6.76,1.35-8.04-4.77-1.69-8.07-3.44-6.44,4.74-10.67,1.61-.83,3.59-2.81,3.62-4.3,.03-1.48-1.87-3.5-3.43-4.45-5.87-3.59-7.22-8.87-3.07-14.43,.63-.85,2.41-1.1,3.67-1.15,1.78-.07,3.58,.51,5.36,.45,3.36-.11,5.32-3.3,3.89-6.36-1.24-2.63-2.78-5.12-4.28-7.86,2.97-2.77,5.87-5.48,9.31-8.68,1.81,1.15,3.97,2.85,6.39,3.95,1.52,.69,3.72,1.1,5.12,.5,1.14-.49,1.57-2.66,2.26-4.11,.13-.27,.02-.66,.02-.99,.04-7.2,3.2-10.52,10.24-10.18,1.16,.06,2.35,1.85,3.3,3.02,1.77,2.18,2.92,5.42,5.16,6.55,3.31,1.66,5.28-1.41,6.33-4.23,1.77-4.79,4.76-5.61,9.16-3.59,1.72,.79,3.67,1.06,5.72,1.62,0,3.1-.14,6.09,.03,9.06,.23,4.02,3,5.46,6.49,3.58,1-.54,2.28-.73,3.08-1.46,4.79-4.41,7.17-.06,10.23,2.54,3.28,2.79,2.01,5.24,.25,8.18-1.27,2.12-4.52,3.68-2.25,7.24,1.76,2.76,2.95,3.29,4.74,.23,3.38-5.76,6.37-11.82,10.34-17.15,4.51-6.05,9.65-11.7,14.99-17.05,5.17-5.18,10.95-9.77,16.4-14.57-14.04-11.82-30.96-19.72-46.94-29.19-12.17-7.21-24.52-14.58-35.19-23.75-13.17-11.32-20.72-26.84-23.97-43.94-2.58-13.58-1.46-27.2,.58-40.91,1.71-11.53,2.79-23.41,1.98-34.99-.99-14.19-7.22-27.01-16.27-38.08-6.87-8.41-14.11-16.52-21.48-24.5-9.23-10.01-11.86-24.27-5.95-36.9,10.02-21.42,27.21-33.93,50.11-38.37,22.95-4.45,43.79,2.24,63.24,13.99,6.26,3.78,11.78,8.77,18,12.65,2.45,1.53,5.84,1.57,8.82,2.19,19.76,4.13,33.96,15.89,41.76,33.94,8.6,19.91,7.88,40.3-5.24,58.35-5.81,8-1.89,14.36,.1,21.32,3.23,11.34,8.97,21.44,16.48,31.19,.56-4.42,1.08-8.23,1.53-12.05,1.19-9.99,5.9-13.49,14.56-16,1.81-.53,4.21-2.16,4.66-3.76,2.62-9.24,9.59-12.04,17.99-13.08,.8-.1,1.61-.14,3.53-.29-3.44-3.97-6.33-7.4-9.31-10.75-9.57-10.79-19.23-21.55-23.43-35.8-5.42-18.41-3.97-36.67,2.29-54.57,5.44-15.56,13.66-29.53,24.61-42,11.71-13.33,24.99-23.91,42.75-27.69,10.7-2.28,20.5,.39,29.44,6.2,4.65,3.02,8.81,6.8,13.76,10.68,0-1.8-.01-3.5,0-5.21,.06-8.89,5.45-14.34,14.33-14.34,39.78-.02,79.56,0,119.34,0,54.76,0,109.52,0,164.27,0,11.23,0,16.61,5.35,16.61,16.48,0,181.92,0,363.83,0,545.75,0,9.19-4.73,13.97-13.86,13.97-35.38,0-70.76,0-106.64,0,.13,6.52-3.28,7.1-7.78,7.06-21.64-.16-43.27-.15-64.91-.01-4.18,.03-6.83-.99-6.67-6.06h-6.08c-31.46,0-62.91,.05-94.37-.08-3.31-.01-6.62-1.07-9.34-1.54-2.2,10.45-5.15,21.45-6.65,32.64-.91,6.76,.32,13.83,.81,20.74,.49,6.87,1.42,13.72,1.86,20.59,.8,12.51,1.32,25.04,2.06,37.56,.94,15.95,1.99,31.9,2.95,47.86,.09,1.58-.12,3.17-1.25,4.96-.56-2.01-1.49-4-1.62-6.03-.49-8.25-.64-16.52-1.09-24.77-.94-16.79-1.94-33.57-3.02-50.35-.54-8.37-1.29-16.72-1.95-25.07-.49-6.13-.98-12.25-1.48-18.47Zm158.23-224.75c7.94,0,15.23,.08,22.53-.03,3.71-.06,5.54,1.38,5.48,5.25-.1,6.16-.15,12.32,.02,18.47,.1,3.32-1.25,4.35-4.43,4.29-7.65-.15-15.36,.46-22.95-.21-6.09-.54-8.6,2.03-10.7,7.23-3.54,8.79-9.35,16.08-16.92,21.91-10.11,7.78-21.69,11.4-34.21,13.07-15.72,2.09-31.32,.88-46.82-1.34-11.09-1.59-21.99-4.51-33-6.66-5.7-1.11-9.94,2.51-9.74,8.37,.56,17.35,1.55,34.69,1.88,52.05,.33,17.47,.13,34.95,.05,52.42-.03,6.64,2.06,8.95,8.76,8.95,32.12,0,64.25,0,96.37,0h4.79v-5.88c0-32.46,0-64.91,0-97.37,0-8.2,5.35-13.58,13.5-13.59,17.98-.02,35.95,0,53.93,0,8.3,0,11.43,3.07,11.43,11.22,0,33.29,0,66.58,0,99.87v5.76h5.92c27.46,0,54.93,0,82.39,0,9.95,0,13.59-3.66,13.59-13.68,0-98.2,0-196.41,0-294.61,0-83.39-.07-166.78,.12-250.17,.02-7.32-5.66-12.89-11.82-12.89-89.71,.08-179.43,.05-269.14,.07-7.48,0-11.8,4.41-11.8,11.99-.02,108.19,0,216.38-.08,324.57,0,3.13,1.17,4.57,3.78,6.05,11.2,6.33,22.29,12.88,33.31,19.53,3.64,2.2,6.94,4.95,10.96,7.85,0-9.6-.01-18.25,0-26.9,0-5.39,1.95-7.45,7.35-7.49,10.32-.07,20.64,.06,30.96-.06,4.03-.05,5.7,1.58,5.63,5.62-.14,8.65-.04,17.31-.04,25.96,0,7.22-3.23,10.35-10.71,10.37-7.08,.01-14.17,0-21.25,0-.08,.51-.16,1.01-.24,1.52,5.41,1.15,11.01,3.83,16.18,3.16,15.76-2.06,24.04-12.59,24.04-28.53,0-3.5,0-6.99,0-10.49,.02-5.29,1.56-7.29,6.8-7.46,2.86-.09,3.74-1.43,4.16-3.72,.34-1.91,.61-3.84,.96-6.09-1.36-.11-2.63-.28-3.9-.31-6.7-.13-8.02-1.46-8.02-8.21,0-8.66,0-17.31,0-25.97,0-6.25,1.54-7.74,7.97-7.74,5.83,0,11.66,.11,17.47-.09,1.34-.05,3.34-.88,3.81-1.9,1.05-2.29,1.33-4.93,2.06-8.03-8.06,0-15.52,0-22.98,0-7.87,0-9.33-1.42-9.34-9.03,0-8.32,0-16.64,0-24.97,0-6.02,1.83-7.88,7.95-7.9,10.32-.04,20.64,.12,30.96-.08,3.58-.07,5.72,1.19,6.19,3.45,5.62-1.17,10.86-2.95,16.18-3.23,9.79-.51,19.63-.14,29.45-.15,4.16,0,6.34,1.55,6.18,6.21-.28,8.15-.08,16.31-.08,24.46,0,9.19-2.03,11.24-11.2,11.24-4.45,0-8.89,0-13.45,0v10.02c6.61,0,12.91,.02,19.21,0,4.3-.02,6.71,1.4,6.53,6.38-.31,8.64-.08,17.31-.09,25.96,0,7.06-2.58,9.57-9.86,9.58-7.66,0-15.31,0-22.97,0q-10.72,0-11.17-10.71c0-.22-.33-.42-1.39-1.69-1.38,4.06-2.51,7.4-3.57,10.5,8.16,3.17,3.49,10.32,5.12,14.49,3.63-.54,7.08-1.41,10.55-1.49,9.15-.21,18.32,.18,27.46-.17,4.79-.18,5.96,1.84,5.88,6.08-.16,8.32-.05,16.64-.05,24.97,0,6.67-3.44,10.65-10.24,10.88-8.81,.3-17.66,.41-26.46-.05-5.55-.29-7.38-2.22-7.22-7.72,.06-1.99,0-3.98,0-5.97l-.69,.04c-.44,7.37-.88,14.75-1.36,22.81Zm-343.82-319.14c-.5-.6-.81-1.26-1.32-1.55-11.39-6.31-22.33-13.74-34.32-18.54-14.37-5.75-29.77-6.85-45.02-2.28-16.01,4.79-28.87,14.41-38.17,27.97-8.53,12.44-10.48,27.22,.24,39.38,7.18,8.14,14.49,16.18,21.46,24.5,17.19,20.51,21.26,44.34,17.41,70.13-1.4,9.37-3.62,18.77-3.6,28.15,.02,9.19,1.48,18.65,3.98,27.52,4.23,14.99,13.12,27.46,24.94,37.55,13.37,11.42,29.33,18.78,44.46,27.44,12,6.86,23.6,14.42,35.77,21.91,14.66-9.01,30.64-18.38,49.02-21.77,8.67-1.6,12.59-7.01,16.41-14.43-3.82-2.3-7.45-4.77-11.32-6.77-11.6-5.98-23.38-11.61-34.93-17.7-11.75-6.19-19.7-16.2-25.45-27.82-5.9-11.96-7.38-24.9-7.38-38.18,0-11.29-.97-22.57-1.53-34.26-17.08,1.07-32.25-1.49-45.55-11.53-13.37-10.09-21.6-23.45-23.55-39.83-3.81-32,14.04-64.8,58.44-69.87Zm190.07,120.37c0-1.78,0-3.55,0-5.33,0-51.6-.19-103.2,.22-154.79,.05-6.95-3.27-10.61-7.65-14.42-1.1-.96-2.32-1.79-3.5-2.66-11.03-8.26-22.91-12.31-36.68-7.67-15.31,5.16-27.64,14.83-37.51,27.08-16.26,20.19-27.85,42.62-28.02,69.5-.08,12.77,1.84,25.23,9.33,35.71,7.89,11.04,17.1,21.13,25.45,31.85,1.78,2.29,3.52,2.79,6.11,2.84,14.45,.28,28.07,3.9,40.74,10.84,13.76,7.53,15.55,24.98,3.53,34.15,1.62,5.52,3.24,11.06,5.04,17.22,4.42-6.17,8.89-11.45,12.29-17.34,10.1-17.49,10.75-30.12-.9-46.48-5.85-8.21-13.96-14.89-21.46-21.82-7.17-6.61-13.29-13.98-17.44-22.72-7.45-15.69-7.92-32.34-5.39-49.17,.58-3.85,2.16-7.56,3.28-11.33l1.58,.45c0,.99,.03,1.98-.01,2.97-.03,.65-.11,1.31-.29,1.94-3.61,12.28-4.24,24.6-1.79,37.26,3.46,17.83,13.37,31.43,26.75,42.93,12.31,10.59,24.28,21.35,26.32,39.01Zm-325.14,422.47c2.98,0,5.68,.3,8.28-.06,7.61-1.05,12.79,1.03,15.48,9.02,.96,2.84,1.35,4.38-.43,6.79-2.94,3.99-5.44,8.29-7.79,11.93,3.84,4.11,7.13,7.63,10.33,11.06,4.19-2.61,8.2-5.12,12.22-7.61,.27-.17,.63-.31,.94-.29,2.1,.12,4.34-.11,6.27,.55,2.11,.72,4.05,2.13,5.83,3.52,1.01,.79,2.11,2.11,2.21,3.28,.29,3.3,.95,6.95-.09,9.91-2.08,5.91,.36,7.57,5.56,8.93,8.42,2.19,9.05,2.81,12.56-5.67,3.07-7.43,7.6-9.5,15.01-8.57,2.99,.37,4.79,1.02,6.02,3.85,1.95,4.48,4.27,8.79,6.48,13.28,1.11-.37,1.99-.76,2.91-.96,11.62-2.53,11.98-2.54,11.47-14.04-.27-5.91,1.39-9.03,6.91-11.67,4.37-2.09,7.32-2.42,10.81,.74,1.02,.93,2.47,1.38,3.36,1.84,2.22-6.77,4.95-13.13,6.36-19.77,3.85-18.15,7.37-36.38,10.57-54.65,1.58-9.02,2.18-18.21,3.16-27.33,1.34-12.55,2.76-25.09,3.88-37.66,.86-9.66,1.36-19.35,1.86-29.03,.06-1.09-.94-2.23-1.45-3.34-.43,.1-.87,.19-1.3,.29-3.31,51.2-7.04,102.33-20.03,153.58-5.75-6.43-10.72-11.98-15.67-17.52-20.78,23.37-46.45,20.45-62.86,10.14-18.76-11.79-25.76-36.11-17.07-57.83,3.88-9.7,10.99-17.15,20.1-22.25,10.02-5.61,21.02-6.42,32.71-4.81-.88-8.57-1.72-16.85-2.57-25.14-2.77-.46-5.86-1.97-8.11-1.15-4.6,1.68-5.85-.98-7.4-3.99-2.01-3.92-3.17-9.74-6.33-11.2-3.3-1.53-8.55,1.13-12.94,1.98-.58,.11-1.13,.33-2.17,.65,.42,5.43,.94,10.65,1.13,15.89,.04,1.24-.72,3.05-1.7,3.69-3.27,2.11-6.7,4.92-10.29,5.29-2.56,.26-5.55-2.86-8.24-4.64-7.75-5.13-7.68-5.12-14.15,1.2-1.53,1.49-3.44,2.59-4.97,3.72,3.35,5.44,6.12,9.66,8.54,14.07,.65,1.19,.76,3.2,.19,4.41-1.3,2.78-3.08,5.35-4.84,7.89-.54,.78-1.64,1.63-2.5,1.65-5.72,.15-11.45,.08-17.43,.08-1.17,4.15-2.52,8.95-3.95,14.02,4.59,2.52,9.21,4.92,13.66,7.58,1.21,.72,2.8,2.24,2.77,3.36-.1,4.23-.79,8.44-1.27,12.7-1.19,.63-2.48,1.34-3.81,2q-12.6,6.3-8.21,20.29Zm515.69-34.05c.09-1.23,.19-2.03,.19-2.83,0-36.45,.02-72.89,0-109.34,0-5.58-2.13-7.6-7.9-7.61-17.81-.03-35.61-.02-53.42,0-7.46,0-11.6,4.15-11.6,11.63,0,34.45,0,68.9,0,103.35v4.8h72.74Zm-287.43-266.1c1.2-4.82,3.01-9.77,3.59-14.87,.88-7.74,2.44-16-5.86-21.37-.68-.44-1.21-1.13-1.77-1.75-12.61-13.86-20.05-29.93-21-48.84-.09-1.76-1.16-3.57-2.1-5.16-4.21-7.12-9.14-13.88-12.67-21.31-3.77-7.94-6.26-16.48-9.39-25-7.2,6.85-15.55,12.48-25.39,14.57-5.35,1.14-5.63,3.72-5.31,7.79,.7,8.84,1.39,17.69,1.97,26.54,.43,6.57,.16,13.24,1.12,19.72,2.56,17.35,10.8,31.77,24.95,42.1,7.02,5.12,15.24,8.62,23,12.7,9.51,5.01,19.11,9.86,28.88,14.89Zm-143.42,228.21c-12.05-1.01-27.1,5.73-35.33,17.54-10.73,15.42-11.8,29.94-3.76,45.49,6.35,12.27,16.65,20.61,31.13,23.15,16.39,2.88,29.49-2.73,40.65-14.12,1.08-1.1,1.56-4.21,.8-5.48-10.45-17.53-17.15-36.4-20.96-56.38-1.95-10.22-1.99-10.21-12.54-10.21Zm150.56-257.35c-.07,1.04-.2,1.84-.17,2.64,.59,15.58-3.04,29.91-13.1,42.09-3.56,4.32-1.1,6.67,2.33,7.81,7.34,2.44,14.84,5.21,22.44,5.8,8.24,.64,16.66-1.07,25.01-1.69,6.94-.51,10.03-1.99,11.06-8.71,1.51-9.86,1.9-19.94,2.11-29.94,.21-10.06-.44-9.5,10.01-13.21,.72-.25,1.54-.21,2.95-.39-10.59-6.3-16.17-14.69-13.11-19.67,3.93,6.92,6.64,14.97,15.69,16.35,3.1-22.38,1.67-44.07-6.6-66.25-4.82,7.72,2.85,18.17-7.42,22.59-2.39-3.37-4.33-6.61-6.78-9.4-2.28-2.6-4.47-1.64-5.46,1.39-2.85,8.75-.04,15.55,7.98,20,1.08,.6,1.99,1.5,3.79,2.89-6.9,.23-9.87-1.81-15.01-9.67-1.4,5.99-3.05,11.43-3.9,16.98-1.93,12.65-5.86,18.05-17.94,19.47-4.41,.52-8.88,.59-13.9,.9Zm-153.19,90.57c-1.26,1.94-2.44,3.67-3.55,5.46-3.29,5.32-10.03,5.07-13.19-.49q-3.41-6-10.14-3v9.81c-6.49,7.32-11.57,1.97-16.95-.97-2.79,2.73-7.28,4.79-2.83,9.35,3.48,3.57,2.41,6.64,.08,10.31-2.4,3.79-5.76,2.84-8.66,2.07-2.78-.74-3.5-.28-4.66,2.31-2.04,4.56,.22,6.65,3.78,7.91,3.56,1.27,4.62,3.36,4.51,7.02-.09,3.02-.76,4.98-3.7,6.11-2.24,.86-4.31,2.14-6.04,3.02-.09,6.63,2.71,9.01,8.79,8.19,1.76-.23,4.45,.94,5.52,2.36,1.87,2.51,3.12,5.25,.38,8.76-4.34,5.56-3.98,5.84,1.71,10.5,2.03-1.25,4.2-2.4,6.18-3.83,3.96-2.86,6.37,1,9.21,2.28,.84,.38,1,3.22,.77,4.83-.8,5.59-.13,6.74,5.39,8.07,.72,.17,1.4,.52,2.17,.81,1.29-2.25,2.75-4.11,3.46-6.22,1.1-3.29,3.57-2.77,5.98-2.75,2.56,.03,4.97-.49,6.54,2.86,3.13,6.68,3.4,6.56,10.94,4.22-.15-.86-.34-1.75-.44-2.65-.59-4.93-.03-9.06,5.7-10.97,1.45-.49,2.77-3.05,3.13-4.86,3.21-16.05,8.21-31.45,15.85-46.04-4.37-1.01-5.84-4.69-5.48-8.06,.34-3.23,2.74-6.24,3.75-8.35-1.77-2.3-3.27-4.26-4.75-6.19-1.53,.92-2.75,1.71-4.02,2.42-7.39,4.12-12.64,1.21-12.06-7.3,.43-6.26-3.48-6.23-7.38-6.99Zm395.22-105.88c-.62-.53-1.24-1.05-1.86-1.58,1.61-7.76,3.16-15.54,4.85-23.29,.5-2.29,1.52-5.06-1.68-5.42-1.37-.16-3.86,2.16-4.47,3.85-4,10.97-8.19,21.91-11.23,33.16-4.26,15.79-7.58,31.83-11.26,47.6,6.08,.96,11.39,1.89,16.72,2.59,2.98,.39,5.2,.24,5.69-4.07,.33-2.93,2.41-6.55,4.84-8.22,12.85-8.82,17.88-21.42,16.52-36.08-.63-6.77,1.58-11.13,5.16-15.88,4.34-5.75,8.41-11.71,12.6-17.58l-.94-.79c-11.65,8.57-23.3,17.14-34.95,25.7Zm-366.55-144.79c-.5,3.96-1.21,7.35-1.3,10.74-.17,6.62-1.28,13.59,.33,19.81,2.74,10.6,10.89,17.92,23.39,19.24,7.22,.77,18.76-3.83,23.6-13.8,5.17-10.66,3.55-22.13,4.24-33.31,.05-.82-2.41-2.56-3.71-2.58-15.43-.18-30.86-.12-46.55-.12Zm214.01,180.63v-107.03c-.76,3.56-1.17,5.76-1.7,7.93-2.88,11.8-10.86,20.67-17.6,30.22-2.07,2.93-2.52,5.57-2.09,9.12,.94,7.67,1.43,15.43,1.5,23.17,.05,5.89-.97,11.78-1.17,17.69-.04,1.32,1.02,3.08,2.12,3.97,6.05,4.96,12.27,9.71,18.93,14.93Zm193.98,54.64c0-4.65,.25-9.33-.16-13.95-.12-1.29-2.16-3.41-3.37-3.45-9.3-.29-18.62-.29-27.92,0-1.21,.04-3.34,2.2-3.38,3.43-.29,9.3-.35,18.62,.03,27.92,.06,1.54,2.56,4.2,4.03,4.27,8.96,.4,17.95,.26,26.92,.15,2.67-.03,4.05-1.41,3.91-4.41-.22-4.64-.06-9.31-.06-13.96Zm-122.37-17.56c-4.32,0-8.65,.2-12.95-.06-4.02-.24-5.4,2.07-5.47,5.33-.17,8.13-.19,16.28,.02,24.41,.07,2.56,.72,5.33,4.41,5.31,9.3-.04,18.6,.12,27.89-.17,1.23-.04,3.39-2.16,3.43-3.37,.29-9.29,.29-18.6,0-27.89-.04-1.22-2.13-3.28-3.41-3.4-4.61-.41-9.29-.16-13.93-.17Zm33.45-87.13c0,4.32,.22,8.65-.06,12.94-.25,3.87,1.32,5.37,5.05,5.33,7.64-.07,15.27,.01,22.91-.06,1.01-.01,2.66-.32,2.93-.95,1.57-3.71,3.58-7.48,3.99-11.38,.66-6.24,.03-12.6,.24-18.9,.11-3.16-1.16-4.66-4.14-4.68-8.96-.06-17.93-.08-26.89,.02-2.57,.03-4.22,1.13-4.07,4.24,.22,4.47,.06,8.96,.05,13.44Zm88.91,52.72c0-4.65,.25-9.32-.16-13.94-.12-1.28-2.12-3.29-3.4-3.41-4.44-.43-8.96,.02-13.43-.23-3.02-.17-4.01,1.1-5.17,3.77-2.5,5.74-4.91,11.91-8.99,16.43-3.15,3.5-4,6.54-3.89,10.72,.07,2.92,.97,4.21,4.05,4.17,8.97-.12,17.94-.11,26.91,0,2.97,.04,4.24-1.01,4.14-4.06-.15-4.48-.04-8.97-.04-13.45Zm-193.74,33.82c0-10,.07-19.93-.08-29.87-.02-1.27-.84-2.92-1.83-3.73-7.21-5.86-14.56-11.56-21.73-17.2-2.72,.92-5.4,1.84-8.1,2.75,4.98,10.49,7.55,21.13,7.89,32.43,.09,3.01-.81,7.36,3.24,8.87,6.67,2.49,13.53,4.46,20.61,6.74Zm130.87-52.33c-7.27,0-14.05-.05-20.84,.02-2.89,.03-4.33,1.33-4.27,4.57,.18,8.96-.03,17.94,.16,26.9,.03,1.49,1.21,4.12,2.05,4.2,2.55,.25,5.22-.4,7.81-.9,1.29-.25,2.47-1.29,3.75-1.38,1.65-.12,3.34,.34,4.78,.52,2.22-11.51,4.32-22.34,6.56-33.92Zm26.62-29.23c1.26,0,1.67,.13,1.88-.02,5.38-3.95,10.73-7.94,16.12-11.88,3.42-2.5,6.78-5.1,10.41-7.24,1.14-.67,3.28-.43,4.54,.22,.59,.3,.69,2.78,.17,3.86-1.55,3.2-3.33,6.33-5.36,9.26-4.21,6.09-8.64,12.03-13.74,19.09,6.65,0,11.76-.19,16.84,.06,3.78,.19,5.23-1.97,5.31-4.99,.22-8.31,.2-16.63,.02-24.94-.07-3.32-1.66-5.39-5.63-5.2-5.64,.28-11.31,.07-16.96,.07-4.06,0-8.13,0-12.49,0-.39,7.69-.75,14.59-1.11,21.71Zm-9.41,156.08c9.28,0,18.53,.1,27.78-.14,.99-.03,2.72-1.95,2.78-3.06,.29-5.46,.32-10.96-.01-16.41-.07-1.18-1.97-3.18-3.09-3.22-7.43-.29-14.87-.15-22.17-.15-1.79,7.8-3.48,15.18-5.27,22.98Zm-330.98-239.93c14.31,.59,26.01-10.82,27.12-22.97,.63-6.85,1.23-13.71,2-20.55,.74-6.53-2.44-12.17-8.05-10.75,.35,1.94,1,3.79,.95,5.61-.17,5.93-.78,11.85-.9,17.78-.31,14.42-5.97,25.22-21.12,30.88Zm156.46,156.95c.68-9.76-2.9-32.52-9.9-39.29-.62,2.81-1.56,5.1-1.53,7.37,.08,6.23,.66,12.46,.87,18.69,.11,3.5-1.54,8.26,.16,10.19,2.02,2.28,6.8,2.13,10.4,3.04Zm-142.37-211.9c-.33-5.48-1.13-10.71-.84-15.89,.5-9.27-10.13-20.25-21.69-16.88-10.15,2.96-16.21,16.06-10.19,24.78,1-2.41,1.79-4.92,1.75-7.42-.14-10.2,5.96-13.57,12.9-14.16,7.09-.61,13.04,6.12,13.09,14.05,.03,5.12,0,10.23,0,15.52h4.98Zm280.58,221.32c-4.5-1.19-6.38,.2-5.99,4.85,.3,3.57,.06,7.19,.06,12.29,1.51-3.69,2.57-5.96,3.36-8.33,.96-2.87,1.71-5.81,2.57-8.82Z"/><path d="M1343.48,812.97c1.38-2.44,2.58-4.56,4.05-7.15-1.28-.79-2.73-2.46-3.86-2.27-6.13,1.05-6.62-3.03-7.21-7.53,1.46-.79,3.57-1.27,4.42-2.57,.81-1.24,.82-4.63,.29-4.85-5.12-2.07-5.35-5.46-3.24-9.78q9.92-1.08,5.62-10.1c1.73-1.44,3.61-2.99,5.61-4.65,8.87,4.17,8.99,4.1,9.34-6.04,3.55-1.06,7-3.26,9.04,2.68,1.03,3,4.34,2.66,5.81-.63,1.7-3.83,4.14-4.51,7.35-2.5,1.08,.68,1.58,2.46,2.08,3.84,.47,1.31,.19,3.55,.96,3.94,1.33,.68,3.3,.53,4.87,.17,1.34-.31,2.5-1.41,3.64-2.1,4.03,2.6,6.52,5.05,2.84,9.9-1.88,2.48-.69,5.03,3.07,5.12,2.37,.06,5.09-.73,6,2.67,.84,3.14-.77,4.73-3.28,6.29-3.85,2.39-3.63,4.3,.39,6.49,1.14,.62,2.28,1.23,3.6,1.95-.66,2.5-1.31,4.95-1.78,6.71-2.66,.21-4.98-.02-6.9,.74-.86,.34-1.74,3.45-1.21,4.01,4.3,4.65,1.18,7.26-2.32,9.9q-9.01-3.7-9.57,5.51c-4.24,2.37-7.63,2.6-10.01-2.81-.9-2.05-3.69-2.99-4.86,0-2.07,5.32-5.31,5.32-9.85,2.54,0-.76,.02-1.91,0-3.05-.12-5.11-1.96-6.28-6.14-3.41-4.42,3.03-6.08-.58-8.74-3.05Zm27.41-38.54c-9.14,0-16.44,6.94-16.55,15.72-.13,10.44,8.27,16.6,16.73,17.06,8.02,.43,16.47-8.52,16.15-16.66-.34-8.64-7.13-16.07-16.32-16.12Z"/><path d="M1495.65,780.78c-1.98,1.81-3.74,3.99-5.98,5.38-19.39,11.96-38.63,24.19-58.38,35.54-26.96,15.49-55.84,26.34-86.17,33.24-4.43,1.01-8.95,1.67-13.45,2.31-.96,.14-2.04-.55-3.22-1.6,62.22-10.67,115.22-41.03,165.81-76.62,.47,.59,.94,1.17,1.4,1.76Z"/><path d="M1467.56,816.69c-2.53,1.77-4.94,3.77-7.61,5.28-24,13.56-48.43,26.37-74.63,35.11-15.67,5.23-31.86,8.93-47.89,13.04-3.77,.97-7.82,.93-11.75,1.09-1.14,.05-2.31-.82-4.03-1.49,13.18-2.6,25.52-4.2,37.35-7.58,14.81-4.22,29.52-9.13,43.68-15.15,15.73-6.68,30.82-14.89,46.13-22.55,3.92-1.96,7.59-4.43,11.45-6.52,2.05-1.1,4.27-1.87,6.41-2.79l.89,1.54Z"/><path d="M1509.99,780.09c-3.67-7.5-6.61-13.5-9.81-20.04,7.71-.9,14.27-1.72,20.85-2.31,.56-.05,1.95,1.85,1.78,2.13-3.92,6.4-8,12.71-12.82,20.22Zm-5.48-17.76c2.33,4.48,4.03,7.77,5.9,11.36,2.71-4.21,5.12-7.97,8.11-12.62-5.17,.47-9.18,.83-14,1.26Z"/><path d="M1018.77,497.55c.09,3.4-3.26,7.01-6.68,7.21-3.29,.19-7.14-3.32-7.26-6.63-.17-4.54,2.23-7.17,6.68-7.3,4.56-.13,7.15,2.26,7.26,6.72Zm-.93,.26c-2.99-1.96-4.69-3.94-6.08-3.74-1.47,.21-3.41,2.35-3.69,3.91-.18,1,2.23,3.42,3.56,3.48,1.53,.08,3.16-1.74,6.21-3.65Z"/><path d="M1317.01,852.36c4.08,.03,6.37,2.53,6.37,6.94,0,3.4-3.47,6.85-6.93,6.88-3.64,.04-7.06-3.59-7.01-7.44,.05-4.16,2.74-6.42,7.57-6.38Zm5.24,6.53c-2.92-1.68-4.63-3.43-6.19-3.31-1.29,.1-2.41,2.41-3.6,3.74,1.46,1.29,2.8,3.32,4.44,3.62,1.15,.21,2.73-1.96,5.36-4.05Z"/><path d="M1434.83,324.02c-31.78,0-63.57-.11-95.35,.08-8.04,.05-12.31-4.02-12.23-12.19,.36-36.94,.15-73.88,.16-110.82,0-7.34,2.45-9.85,9.57-9.85,64.73,0,129.46,0,194.19,0,8.74,0,10.91,2.22,10.91,11.2,0,36.77,0,73.55,0,110.32,0,8.03-3.24,11.26-11.41,11.26-31.95,.02-63.9,0-95.85,0Zm.19-129.83c-32.12,0-64.24,0-96.36,0-7.27,0-8.28,1-8.29,8.22,0,36.61,0,73.23,0,109.84,0,7.32,1.52,8.81,9.07,8.81,63.57,0,127.15,0,190.72,0,7.24,0,8.97-1.75,8.97-9.05,0-36.45,0-72.89,0-109.34,0-7.14-1.3-8.47-8.26-8.48-31.95,0-63.91,0-95.86,0Z"/><path d="M1406.71,380.94c-4.65,0-9.32-.19-13.96,.06-4.65,.25-6.63-1.45-6.49-6.28,.25-8.8,.23-17.62,.02-26.42-.17-6.84,.84-8.43,8.53-9.06,9.9-.81,19.93-.36,29.89-.12,3.97,.09,6.73,1.9,6.6,6.73-.23,8.63-.05,17.28-.07,25.92-.01,5.37-3.57,9.02-9.07,9.15-5.15,.11-10.3,.02-15.45,.02Zm.26-37.95c-4.32,0-8.65,.2-12.95-.06-3.8-.23-4.88,1.34-4.79,4.95,.2,8.46,.24,16.94-.01,25.4-.12,3.95,1.87,5.55,5.19,5.63,8.3,.19,16.61,.21,24.91-.03,2.63-.07,5.07-1.08,5.02-4.74-.14-9.13-.1-18.27-.02-27.4,.03-2.8-1.16-3.85-3.89-3.78-4.48,.11-8.97,.03-13.45,.03Z"/><path d="M1491.19,413.38c0-4.82,.19-9.65-.05-14.46-.24-4.74,2.41-6.79,6.46-6.87,10.64-.23,21.28-.09,31.92-.07,4.27,0,5.62,2.54,5.6,6.41-.06,8.81,0,17.62-.02,26.43-.02,5.13-3.53,8.94-8.7,9.01-9.81,.14-19.62,.08-29.43,.02-3.85-.03-6.12-1.56-5.84-6.01,.3-4.8,.07-9.64,.07-14.46Zm20.95-17.45c-4.81,0-9.64-.24-14.42,.16-1.28,.11-3.37,2.17-3.41,3.39-.29,9.28-.29,18.58,0,27.87,.04,1.22,2.18,3.36,3.4,3.4,9.28,.29,18.58,.29,27.87,0,1.22-.04,3.36-2.18,3.4-3.4,.29-9.28,.29-18.58,0-27.87-.04-1.22-2.13-3.27-3.41-3.39-4.44-.42-8.94-.16-13.42-.16Z"/><path d="M1512.24,485.81c-4.82,0-9.65-.12-14.47,.04-4.04,.13-5.67-1.6-5.62-5.62,.13-9.48,.04-18.96,.04-28.45,0-5.21,1.93-7.67,7.13-7.8,10.14-.24,20.29-.15,30.44-.03,4.19,.05,6.54,1.92,6.41,6.68-.26,8.98-.02,17.96-.09,26.95-.04,4.69-3.61,8.16-8.37,8.22-5.16,.07-10.31,.02-15.47,.02Zm.51-37.95c-4.48,0-8.96,.1-13.44-.03-2.9-.09-4.24,.87-4.2,3.98,.12,8.96,.11,17.92,0,26.88-.03,2.9,.88,4.24,3.99,4.2,8.96-.12,17.92-.11,26.88,0,2.9,.03,4.24-.88,4.2-3.99-.12-8.96-.14-17.92,0-26.88,.06-3.38-1.4-4.32-4.5-4.2-4.31,.17-8.63,.04-12.94,.04Z"/><path d="M1514.29,340.04c5.15,0,10.3,.18,15.44-.06,3.76-.18,5.23,1.96,5.29,4.98,.2,9.96,.16,19.92,.03,29.88-.04,2.96-5.25,7.06-8.82,7.08-9.63,.07-19.26-.01-28.89,.04-4.36,.02-6.19-2.11-6.16-6.36,.07-9.63,.16-19.26-.04-28.88-.1-4.87,2.75-6.44,6.72-6.62,5.47-.25,10.95-.06,16.43-.06Zm-20.13,20.86c0,4.48,.15,8.98-.05,13.45-.15,3.39,.97,4.77,4.53,4.7,8.63-.19,17.27-.18,25.91,0,3.42,.07,4.74-1.04,4.66-4.57-.19-8.63-.22-17.28,.01-25.9,.11-4-2.03-5.44-5.31-5.51-8.47-.17-16.94-.08-25.41-.05-3.25,.01-4.62,1.54-4.41,4.94,.26,4.3,.06,8.63,.06,12.95Z"/><path d="M1514.77,496.83c5.49,0,10.97,.03,16.46-.01,3.27-.02,4.88,1.49,4.88,4.79-.02,9.81,.05,19.61-.04,29.42-.04,3.7-4.62,7.45-9.95,7.62-8.97,.28-17.96,.29-26.92,0-5.53-.18-6.99-2.17-7-7.81,0-9.14,.03-18.28-.01-27.43-.02-4.5,2.14-6.64,6.63-6.6,5.32,.05,10.64,.01,15.96,.01Zm-19.62,20.47c0,4.49,.22,8.99-.07,13.46-.24,3.77,1.46,5.03,4.86,5.02,8.31-.02,16.63-.07,24.94,.02,3.82,.04,5.33-1.71,5.29-5.44-.1-8.81-.1-17.62,0-26.43,.04-2.92-.92-4.23-4.01-4.19-8.98,.12-17.96,.12-26.93,0-2.99-.04-4.22,1.05-4.12,4.08,.15,4.48,.04,8.98,.04,13.46Z"/><path d="M1354.85,380.94c-4.99,0-9.98-.11-14.96,.04-4.08,.12-5.59-1.72-5.54-5.69,.13-9.64,.03-19.28,.05-28.92,0-4.82,1.8-6.99,7.7-7.2,10.13-.38,20.28-.25,30.41-.03,3.77,.08,6.16,1.68,5.92,6.46-.45,8.95-.12,17.95-.13,26.92,0,5.31-3.03,8.34-8.49,8.42-4.99,.07-9.97,.01-14.96,.01Zm17.49-20.45c0-4.32-.17-8.65,.05-12.96,.18-3.52-1.19-4.67-4.64-4.6-8.47,.18-16.96,.25-25.42-.02-4.48-.14-5.92,2.11-5.95,5.91-.08,8.14-.01,16.29-.03,24.43,0,3.56,1.76,5.63,5.28,5.68,8.47,.12,16.95,.15,25.43-.02,3.26-.06,5.58-1.45,5.34-5.47-.25-4.31-.06-8.64-.06-12.96Z"/><path d="M1358.42,443.9c4.83,0,9.66,.19,14.47-.06,4.67-.25,6.62,1.48,6.48,6.31-.25,8.81-.07,17.64-.07,26.45,0,4.98-3.75,9.09-8.79,9.16-9.82,.13-19.63,.07-29.45,.02-3.97-.02-5.86-1.79-5.75-6.12,.25-9.64,.23-19.3,.01-28.95-.11-4.85,2.64-6.54,6.62-6.75,5.48-.28,10.98-.07,16.47-.07Zm-2.94,38.94c4.66,0,9.32-.08,13.97,.03,2.71,.06,3.95-.93,3.93-3.76-.08-9.15-.05-18.3-.02-27.45,0-3.31-1.62-4.82-4.88-4.81-8.48,.02-16.97,.01-25.45,0-3.59,0-5.58,1.84-5.62,5.35-.11,8.48-.15,16.97,.03,25.45,.07,3.31,1.58,5.51,5.58,5.24,4.14-.28,8.31-.06,12.47-.06Z"/><path d="M1462.36,340.04c5.31,0,10.63,.03,15.94,0,3.26-.02,4.88,1.48,4.87,4.79-.02,9.8,.05,19.59-.04,29.39-.04,3.94-4.02,7.63-8.48,7.69-9.96,.14-19.92,.14-29.88,0-3.41-.05-5.47-2.1-5.49-5.63-.06-9.8-.1-19.59,.01-29.39,.05-4.63,2.33-6.73,7.13-6.81,5.31-.09,10.63-.02,15.94-.02Zm-2.87,38.95c4.32,0,8.65-.23,12.95,.07,3.93,.27,5.61-1.78,5.69-5.12,.19-8.3,.21-16.62-.01-24.92-.08-2.94-1-5.98-4.95-6-8.64-.05-17.28-.15-25.92,.07-2.63,.07-5.12,1.01-5.08,4.68,.12,9.14,.09,18.28,0,27.41-.03,2.77,1.08,3.9,3.84,3.83,4.48-.11,8.97-.03,13.46-.03Z"/><path d="M1357.31,391.97c5.32,0,10.64,.05,15.96-.02,3.56-.05,5.08,1.63,5.05,5.14-.07,8.98-.02,17.96-.02,26.94,0,5.18-3.99,9.66-9.31,9.78-9.47,.21-18.96,.25-28.43-.04-3.75-.11-6.33-2.02-6.23-6.6,.22-9.47,.04-18.96,.08-28.44,.02-4.82,2-6.73,6.93-6.76,5.32-.03,10.64,0,15.96,0Zm-2.64,2.96c-3.99,0-8,.24-11.97-.06-4.59-.35-6.31,1.87-6.33,6.04-.03,7.98,.02,15.97-.02,23.95-.02,4.05,1.87,6.08,5.96,6.07,8.32-.02,16.63-.05,24.95,.01,3.53,.03,5.14-1.56,5.11-5.1-.06-8.65-.05-17.3,0-25.94,.02-3.6-1.76-5.05-5.23-4.98-4.16,.08-8.32,.02-12.47,.02Z"/><path d="M1437.8,671.56c-3.15,0-6.31,.07-9.46-.02-4.79-.13-6.95-2.19-7.03-6.91-.11-6.64-.1-13.28,0-19.91,.07-4.95,2.25-7,7.38-7.06,6.31-.07,12.62,.14,18.92-.07,5.02-.16,7.33,2.49,7.51,6.98,.27,6.63,.47,13.3-.05,19.9-.41,5.14-1.76,7.21-7.81,7.1-3.15-.06-6.31-.01-9.46-.01Z"/><path d="M1030.95,555.75c15.53-1.64,27.92,12.74,27.84,27.7-.09,14.4-12.09,27.7-28.99,27.41-12.94-.22-27.12-11.97-26.91-28.2,.18-13.8,11.91-28.7,28.06-26.9Zm-.42,51.93c13.67,.89,25.22-11.75,25.33-24.03,.13-13.95-11.17-25.63-24.46-25.66-14.2-.03-24.86,9.82-25.4,24.59-.55,15.13,12.11,25.52,24.53,25.1Z"/><path d="M1095.22,317.78h-4.51c0-2.19-.09-4.16,.02-6.12,.17-2.85-.14-5.08-2.81-7.15-3.22-2.5-3.11-8.93-.53-11.6,3.31-3.43,9.1-3.9,12.54-1.03,3.16,2.64,4.4,9.71,1.08,11.95-5.33,3.58-4.25,8.98-5.79,13.95Z"/><path d="M1506.14,260.01c.03,6.05-3.85,10.14-9.55,10.08-5.14-.05-10.27-4.93-10.37-9.85-.12-5.79,3.95-10.03,9.68-10.08,6.37-.06,10.22,3.63,10.24,9.85Z"/><path d="M1417.25,262.1c0,5.26-4.24,9.78-9.34,9.94-5.46,.17-10.75-5.14-10.59-10.64,.17-5.72,4.13-9.25,10.4-9.25,5.89,0,9.53,3.79,9.53,9.96Z"/><path d="M1477.17,260.57c.02,5.76-4.36,10.41-9.87,10.5-4.91,.08-10.14-5.17-10.06-10.1,.09-5.97,3.88-9.78,9.78-9.82,6.14-.04,10.13,3.67,10.15,9.42Z"/><path d="M1447.21,261.06c.01,6.12-3.74,10.06-9.55,10.03-5.73-.03-10.41-4.54-10.38-10,.03-4.72,5.04-9.84,9.73-9.94,6.19-.13,10.18,3.75,10.19,9.91Z"/><ellipse cx="1377.82" cy="262.12" rx="9.47" ry="9.97"/></g></svg>