<?xml version="1.0" encoding="UTF-8"?><svg id="a" xmlns="http://www.w3.org/2000/svg" viewBox="0 0 647.25 741.65"><defs><style>.b{fill:#fff;}.c{stroke:#231f20;}.c,.d{fill:none;stroke-miterlimit:10;}.d{stroke:#fff;}</style></defs><g><path class="b" d="M59.51,337.3c-1.48,.21-2.44,2.13-2.72,3.69-.18,1,1.25,3.63,2.58,3.7,.34,.02,.68-.06,1.04-.2,3.06-1.25,3.1-5.8,.04-7.04-.33-.14-.65-.19-.94-.15Zm7,3.48c.08,3.4-3.26,7.01-6.68,7.21-3.29,.2-7.14-3.32-7.26-6.63-.17-4.54,2.23-7.17,6.68-7.3,4.56-.13,7.15,2.27,7.26,6.72Z"/><path class="b" d="M437.96,348.24c.3,3.57,.06,7.19,.06,12.29,1.51-3.69,2.57-5.96,3.37-8.32,.96-2.87,1.7-5.81,2.57-8.82-4.5-1.19-6.38,.2-6,4.85Zm69.75,45.87c-7.42-.29-14.87-.15-22.17-.15-1.79,7.79-3.48,15.18-5.27,22.98,9.27,0,18.53,.1,27.78-.14,.99-.03,2.71-1.95,2.77-3.06,.29-5.46,.32-10.96-.01-16.41-.07-1.18-1.98-3.18-3.1-3.22ZM104.44,552.96c-1.95-10.22-1.99-10.21-12.54-10.21-12.05-1.01-27.11,5.73-35.33,17.54-10.73,15.43-11.8,29.95-3.76,45.5,6.36,12.27,16.65,20.61,31.13,23.15,16.39,2.87,29.49-2.73,40.65-14.12,1.08-1.1,1.56-4.21,.8-5.48-10.45-17.53-17.14-36.4-20.95-56.38Zm357.18-92.1c-7.47,.01-11.61,4.16-11.61,11.63,0,34.45,0,68.9,0,103.35v4.8h72.74c.08-1.23,.19-2.03,.19-2.83,.01-36.44,.02-72.89-.01-109.33,0-5.58-2.13-7.6-7.89-7.61-17.81-.03-35.62-.02-53.42-.01ZM161.7,265.53c-5.9-11.96-7.38-24.91-7.38-38.19,0-9.77-.73-19.55-1.28-29.59l2.3-.13c.01,.31,.04,.64,.06,.97,.7,8.85,1.39,17.69,1.97,26.54,.43,6.57,.16,13.24,1.12,19.72,2.56,17.35,10.8,31.78,24.95,42.1,7.02,5.12,15.25,8.62,23,12.7,9.52,5.01,19.11,9.86,28.88,14.89,1.21-4.82,3.29-9.75,3.45-14.88,.1-3.07,.5-6.1,.5-8.98h.48c.15,14.03-1.62,28.65-10.55,39.46-3.57,4.31-1.11,6.67,2.33,7.81,7.34,2.44,14.85,5.21,22.44,5.8,8.24,.65,16.66-1.07,25.01-1.69,6.94-.51,10.03-1.99,11.06-8.71,.26-1.71,.49-3.42,.69-5.14-.06,1-.04,1.95,.1,2.72,.55,3,14.77,3.88,18.38,4.79,1.32,.42,2.33,.48,3.09,.22,6.7,2.49,16.88,6.22,23.71,8.42-.03-.26-.05-.53-.07-.8,.6,.99,1.57,1.75,2.93,2.52,11.2,6.33,22.29,12.88,33.31,19.53,3.63,2.19,6.93,4.95,10.95,7.85v-12.96h1.89c0,4.06,.05,8.14,.16,12.2,.07,2.55,.72,5.33,4.41,5.31,1.83,0,3.66,0,5.5,0v2.96c-.09,.51-.17,1.02-.25,1.52,5.41,1.15,11.01,3.84,16.18,3.16,4.9-.64,9.07-2.1,12.5-4.28,7.61-4.84,11.54-13.26,11.54-24.25,0-3.5-.01-6.99,.01-10.49,.01-5.29,1.55-7.28,6.79-7.45,2.87-.1,3.75-1.43,4.16-3.73,.35-1.91,.61-3.84,.97-6.09-1.36-.11-2.63-.28-3.9-.31-6.71-.13-8.02-1.45-8.03-8.21v-9.49h2.97c0,3.42,.02,6.83,.09,10.24,.03,1.49,1.21,4.12,2.05,4.2,2.56,.25,5.23-.4,7.81-.9,1.29-.26,2.47-1.29,3.75-1.38,1.65-.13,3.34,.34,4.78,.52l2.34,.4c6.08,.96,11.38,1.89,16.72,2.59,2.97,.4,5.2,.24,5.69-4.07,.25-2.2,1.48-4.78,3.1-6.64l2.14,.33c-1.37,4.06-2.51,7.4-3.56,10.5,8.16,3.17,3.49,10.31,5.12,14.49,1.97-.29,3.88-.68,5.77-.99l.42,2.58c-1.23,.28-3.1,2.25-3.13,3.4-.29,9.3-.35,18.63,.03,27.92,.06,1.54,2.56,4.2,4.02,4.27,8.96,.39,17.95,.25,26.93,.15,.16,0,.32-.01,.47-.02l.33,2.86c-.4,.05-.82,.08-1.24,.09-8.81,.3-17.66,.41-26.45-.05-5.55-.28-7.38-2.21-7.22-7.72,.05-1.99,0-3.98,0-5.97-.23,.01-.46,.02-.69,.04-.44,7.37-.87,14.75-1.36,22.81,7.94,0,15.24,.08,22.53-.03,3.71-.06,5.55,1.38,5.48,5.24-.1,6.16-.15,12.32,.02,18.48,.1,3.32-1.25,4.35-4.43,4.28-7.65-.15-15.35,.46-22.95-.21-6.09-.54-8.6,2.03-10.7,7.23-3.54,8.79-9.35,16.08-16.92,21.91-10.1,7.79-21.69,11.4-34.21,13.07-15.72,2.1-31.32,.88-46.82-1.34-11.09-1.59-21.98-4.51-33-6.67-5.7-1.11-9.94,2.51-9.75,8.38,.57,17.35,1.56,34.69,1.89,52.05,.33,17.46,.13,34.94,.05,52.42-.04,6.63,2.05,8.94,8.75,8.94,32.13,.01,64.25,.01,96.37,.01h4.8v-5.89c0-32.45,0-64.91,0-97.37,.01-8.2,5.35-13.58,13.5-13.58,17.98-.02,35.95-.01,53.93-.01,8.3,0,11.43,3.07,11.43,11.22v105.63h88.31v1.95c-29.17,.01-58.4,.01-87.97,.01,.13,6.52-3.27,7.1-7.78,7.06-21.63-.16-43.27-.15-64.91-.01-4.18,.03-6.83-.99-6.66-6.05h-6.09c-31.46,0-62.91,.05-94.37-.08-3.31-.01-6.62-1.07-9.33-1.54-2.21,10.45-5.16,21.45-6.66,32.64-.9,6.76,.32,13.83,.81,20.74,.49,6.87,1.42,13.71,1.86,20.59,.8,12.51,1.33,25.04,2.06,37.56,.94,15.95,1.99,31.9,2.95,47.85,.1,1.58-.12,3.18-1.24,4.96-.56-2.01-1.5-3.99-1.62-6.03-.49-8.25-.64-16.52-1.1-24.77-.93-16.78-1.94-33.57-3.02-50.35-.53-8.36-1.29-16.71-1.95-25.07-.48-6.13-.98-12.25-1.48-18.47-3.78,4.43-7.18,8.75-10.92,12.74-13.57,14.45-31.06,21.47-49.99,24.96-10.28,1.9-20.89,3.2-31.32,2.96-27.31-.61-53.75-6.15-79.01-16.79-1.34-.57-2.53-1.49-3.81-2.21-1.12-.64-2.27-1.22-3.78-2.03l-2.13-.62c.38-1.33,.71-2.66,1-4,1.54-7.23,3.02-14.47,4.45-21.72,2.16-10.95,4.2-21.93,6.12-32.93,1.58-9.02,2.18-18.21,3.16-27.34,1.34-12.54,2.76-25.09,3.88-37.66,.86-9.65,1.36-19.34,1.86-29.03,.05-1.08-.95-2.23-1.46-3.34-.43,.1-.86,.19-1.3,.29-2.78,43.2-5.88,86.35-14.58,129.56-1.61,8-3.41,16-5.44,24.01-5.76-6.43-10.72-11.98-15.67-17.52-20.78,23.37-46.46,20.45-62.87,10.14-18.76-11.79-25.76-36.11-17.07-57.82,3.88-9.7,10.99-17.16,20.1-22.25,10.02-5.61,21.02-6.42,32.71-4.81-.88-8.57-1.72-16.85-2.57-25.14-2.19-.36-4.58-1.38-6.61-1.38l-.17-1.79c1.54-.14,3.12-.55,4.55-.56,.9,0,2.39-4.04,2.55-6.31,.88-12.16,1.44-24.35,2.08-36.53,.06-1.14-.12-2.29-.29-4.99-1.76,2.07-3.27,3.08-3.61,4.38-.53,2.06-.44,4.53-.76,6.63l-1.84,.33c-.15-.86-.34-1.75-.44-2.65-.59-4.93-.04-9.05,5.7-10.97,1.45-.49,2.77-3.05,3.13-4.87,3.22-16.04,8.22-31.45,15.85-46.04-4.37-1.01-5.84-4.69-5.48-8.06,.04-.4,.12-.8,.22-1.2l2.65,.46c-.21,.85-.08,1.83,.7,3.05,1.76,2.76,2.94,3.29,4.74,.23,3.37-5.76,6.37-11.82,10.34-17.15,4.5-6.06,9.64-11.7,14.98-17.05,5.17-5.19,10.95-9.77,16.4-14.57-14.04-11.82-30.96-19.72-46.93-29.19-6.72-3.98-13.49-8.01-20-12.36l1.35-2.04c10.84,7.28,22.65,13.05,34.01,19.54,12,6.87,23.6,14.43,35.76,21.92,14.66-9.01,30.64-18.38,49.02-21.77,8.67-1.6,12.59-7.01,16.42-14.43-3.82-2.3-7.45-4.77-11.33-6.77-11.59-5.98-23.38-11.61-34.92-17.7-11.75-6.19-19.71-16.2-25.45-27.82Z"/><path class="b" d="M239.63,285.38c-.02-.72,0-.56,2.16-.11,.43,.09,.88,.12,1.32,.1,4.76-.28,9.03-.36,13.25-.86,12.08-1.42,16.02-6.82,17.94-19.47,.85-5.56,2.5-10.99,3.9-16.98,5.14,7.86,8.11,9.89,15.01,9.66-1.8-1.39-2.71-2.29-3.78-2.89-8.02-4.45-10.83-11.25-7.99-20,.99-3.03,3.19-4,5.46-1.4,2.45,2.8,4.39,6.04,6.79,9.41,10.27-4.42,2.59-14.87,7.41-22.59,3.29,8.81,5.49,17.55,6.76,26.29,.37,2.53,.66,5.05,.88,7.58,.91,10.72,.47,21.47-1.04,32.38-9.05-1.39-11.77-9.44-15.69-16.35-3.06,4.97,2.51,13.37,13.11,19.66-1.42,.18-2.24,.14-2.96,.39-9.94,3.53-9.84,3.19-9.98,11.82v.03c-.01,.43-.02,.88-.03,1.36-.16,7.4-.4,14.85-1.14,22.22,0,0,0,.02,0,.03-.13,.82-.23,1.7-.28,2.55-.2,1.72-.43,3.43-.69,5.14-1.03,6.72-4.12,8.2-11.06,8.71-8.35,.62-16.77,2.34-25.01,1.69-7.59-.59-15.1-3.36-22.44-5.8-3.44-1.14-5.9-3.5-2.33-7.81,8.93-10.81,10.7-25.43,10.55-39.47-.01-1.78-.05-3.54-.12-5.29Z"/><path class="b" d="M163.97,161.3c5.17-10.66,3.55-22.13,4.24-33.31,.05-.81-2.41-2.56-3.71-2.57-15.43-.18-30.87-.12-46.55-.12-.5,3.96-1.21,7.35-1.3,10.75-.17,6.62-1.28,13.59,.33,19.81,2.74,10.59,10.89,17.92,23.39,19.24,7.22,.77,18.77-3.83,23.6-13.8Zm22.14,14.93c-7.21,6.86-15.56,12.48-25.4,14.58-4.91,1.05-5.55,3.3-5.37,6.81l-2.3,.13c-.09-1.55-.18-3.1-.25-4.67-17.09,1.07-32.26-1.49-45.56-11.53-13.36-10.09-21.59-23.45-23.54-39.83-3.81-32,14.04-64.8,58.44-69.87-.5-.6-.81-1.26-1.32-1.54l1.41-2.04c1.85,1.36,3.73,2.68,5.67,3.89,2.45,1.52,5.84,1.57,8.82,2.19,19.76,4.14,33.96,15.89,41.76,33.94,8.6,19.91,7.88,40.31-5.24,58.35-1.61,2.23-2.7,4.31-3.93,5.94-.93,1.23-1.25,2.47-1.18,3.72-.74-.37-1.55-.58-2.01-.07Zm-14.8-47.88c-.17,5.93-.78,11.85-.9,17.78-.31,14.42-5.97,25.22-21.12,30.88,14.31,.59,26-10.82,27.12-22.97,.63-6.86,1.22-13.72,2-20.56,.75-6.53-2.44-12.17-8.04-10.74,.34,1.93,1,3.78,.94,5.61Zm-12.92-6.28h4.98c-.33-5.48-1.12-10.72-.84-15.89,.5-9.28-10.13-20.25-21.69-16.88-10.15,2.96-16.21,16.06-10.2,24.78,1-2.41,1.79-4.92,1.75-7.42-.14-10.2,5.97-13.57,12.9-14.16,7.09-.61,13.05,6.12,13.09,14.05,.03,5.11,.01,10.23,.01,15.52Z"/><path d="M538.98,250.1c.03-2.66,.02-5.31-.11-7.95-.23-4.74,2.41-6.79,6.47-6.88,10.63-.22,21.27-.09,31.91-.07,4.28,.01,5.63,2.54,5.6,6.41-.06,8.81,0,17.63-.02,26.44-.02,5.13-3.53,8.93-8.71,9.01-9.81,.14-19.62,.08-29.42,.02-3.86-.03-6.12-1.57-5.84-6.01,.16-2.63,.17-5.26,.14-7.89l2.87-.03c.05,2.48,.1,4.95,.18,7.43,.04,1.22,2.18,3.36,3.4,3.4,9.28,.28,18.58,.28,27.87,0,1.21-.04,3.36-2.18,3.39-3.4,.29-9.29,.29-18.59,0-27.87-.03-1.22-2.12-3.27-3.41-3.39-4.44-.42-8.94-.16-13.42-.16-4.81,0-9.64-.25-14.42,.16-1.28,.11-3.37,2.17-3.41,3.39-.08,2.47-.13,4.95-.18,7.42l-2.89-.03Z"/><path class="b" d="M435.06,357.11c0,10.99-3.93,19.41-11.54,24.25l-.94-1.56c3.07-1.49,4.46-4.47,4.46-9.21,0-8.65-.1-17.31,.04-25.96,.06-4.04-1.61-5.67-5.63-5.62-10.32,.13-20.64,0-30.96,.07-5.4,.03-7.35,2.1-7.35,7.49-.01,4.6-.01,9.19-.01,13.93v12.96c-4.02-2.9-7.32-5.66-10.95-7.85-11.02-6.65-22.11-13.2-33.31-19.53-1.36-.77-2.33-1.53-2.93-2.52-.45-4.65-.69-10.26-.84-15.93,.06-98.56,.05-197.12,.07-295.68V15.46c0-7.58,4.32-11.98,11.8-11.99,89.71-.02,179.43,.01,269.14-.07,6.16,0,11.84,5.57,11.82,12.89-.19,83.39-.12,166.78-.12,250.17v294.6c0,10.03-3.64,13.69-13.59,13.69h-88.31v-105.63c0-8.15-3.13-11.22-11.43-11.22-17.98,0-35.95-.01-53.93,.01-8.15,0-13.49,5.38-13.5,13.58,0,32.46,0,64.92,0,97.37v5.89h-4.8c-32.12,0-64.24,0-96.37-.01-6.7,0-8.79-2.31-8.75-8.94,.08-17.48,.28-34.96-.05-52.42-.33-17.36-1.32-34.7-1.89-52.05-.19-5.87,4.05-9.49,9.75-8.38,11.02,2.16,21.91,5.08,33,6.67,15.5,2.22,31.1,3.44,46.82,1.34,12.52-1.67,24.11-5.28,34.21-13.07,7.57-5.83,13.38-13.12,16.92-21.91,2.1-5.2,4.61-7.77,10.7-7.23,7.6,.67,15.3,.06,22.95,.21,3.18,.07,4.53-.96,4.43-4.28-.17-6.16-.12-12.32-.02-18.48,.07-3.86-1.77-5.3-5.48-5.24-7.29,.11-14.59,.03-22.53,.03,.49-8.06,.92-15.44,1.36-22.81,.23-.02,.46-.03,.69-.04,0,1.99,.05,3.98,0,5.97-.16,5.51,1.67,7.44,7.22,7.72,8.79,.46,17.64,.35,26.45,.05,.42-.01,.84-.04,1.24-.09,5.98-.65,9-4.54,9-10.79,0-8.32-.12-16.65,.05-24.97,.08-4.24-1.09-6.26-5.88-6.08-9.14,.35-18.31-.03-27.46,.17-1.59,.04-3.18,.24-4.78,.51-1.89,.31-3.8,.7-5.77,.99-1.63-4.18,3.04-11.32-5.12-14.49,1.05-3.1,2.19-6.44,3.56-10.5,1.07,1.27,1.39,1.48,1.4,1.69q.45,10.71,11.17,10.71c7.66,0,15.31,.01,22.97,0,7.28-.01,9.86-2.52,9.86-9.58,0-8.65-.22-17.31,.09-25.96,.17-4.97-2.23-6.39-6.53-6.37-6.3,.03-12.6,0-19.21,0v-10.02h13.45c.72,0,1.4-.01,2.03-.05,7.45-.32,9.17-2.71,9.17-11.19s-.2-16.32,.08-24.46c.16-4.66-2.02-6.21-6.18-6.21-9.82,.01-19.66-.36-29.46,.15-3.61,.19-7.19,1.07-10.88,1.98-1.74,.43-3.5,.87-5.3,1.25-.46-2.26-2.6-3.52-6.19-3.45-10.31,.2-20.63,.04-30.95,.08-6.12,.02-7.95,1.88-7.95,7.91-.01,8.32-.01,16.64,0,24.96,0,7.6,1.46,9.02,9.33,9.03h22.98c-.73,3.1-1.01,5.74-2.06,8.03-.47,1.03-2.47,1.86-3.81,1.9-5.82,.21-11.65,.09-17.47,.1-6.43,0-7.97,1.48-7.97,7.74-.01,5.49-.01,10.98-.01,16.47v9.49c.01,6.76,1.32,8.08,8.03,8.21,1.27,.03,2.54,.2,3.9,.31-.36,2.25-.62,4.18-.97,6.09-.41,2.3-1.29,3.63-4.16,3.73-5.24,.17-6.78,2.16-6.79,7.45-.02,3.5-.01,6.99-.01,10.49Zm154.76-201.13c.01-36.78,.01-73.55,0-110.33,0-8.97-2.18-11.19-10.91-11.19-64.73-.01-129.46-.01-194.19,0-7.12,0-9.57,2.51-9.58,9.85,0,36.94,.21,73.88-.16,110.82-.08,8.17,4.19,12.24,12.23,12.19,31.78-.18,63.57-.08,95.35-.08s63.9,.01,95.85,0c8.17-.01,11.41-3.24,11.41-11.26Zm-5.91,137.87c.13-4.77-2.22-6.63-6.41-6.68-10.15-.12-20.3-.21-30.44,.03-5.2,.12-7.13,2.59-7.13,7.8-.01,9.48,.09,18.96-.05,28.45-.05,4.02,1.58,5.75,5.62,5.62,4.82-.16,9.65-.04,14.47-.04,5.16,0,10.32,.05,15.47-.01,4.77-.07,8.33-3.53,8.37-8.22,.07-8.99-.16-17.98,.1-26.95Zm-.07,50.99c.01-3.31-1.61-4.82-4.88-4.79-5.48,.03-10.97,.01-16.45,.01-5.32-.01-10.64,.03-15.96-.02-4.49-.04-6.65,2.1-6.63,6.6,.03,9.14,0,18.28,.01,27.43,0,5.63,1.46,7.62,6.99,7.81,8.97,.29,17.96,.28,26.93,0,5.32-.17,9.91-3.92,9.95-7.62,.09-9.81,.01-19.61,.04-29.42Zm-.99-103.23c.03-3.87-1.32-6.4-5.6-6.41-10.64-.02-21.28-.15-31.91,.07-4.06,.09-6.7,2.14-6.47,6.88,.13,2.64,.14,5.29,.11,7.95-.02,2.17-.05,4.34-.05,6.51s.05,4.38,.07,6.57c.03,2.63,.02,5.26-.14,7.89-.28,4.44,1.98,5.98,5.84,6.01,9.8,.06,19.61,.12,29.42-.02,5.18-.08,8.69-3.88,8.71-9.01,.02-8.81-.04-17.63,.02-26.44Zm-.07-23.55c.12-9.96,.16-19.93-.03-29.88-.06-3.02-1.53-5.16-5.29-4.98-5.14,.25-10.29,.06-15.44,.06-5.48,0-10.96-.18-16.43,.06-3.97,.18-6.82,1.75-6.72,6.62,.19,9.63,.1,19.26,.04,28.89-.03,4.25,1.8,6.38,6.16,6.35,9.63-.05,19.26,.03,28.88-.04,3.58-.03,8.79-4.12,8.83-7.08Zm-51.87-30.02c0-3.31-1.61-4.81-4.88-4.79-5.31,.04-10.62,0-15.93,0s-10.63-.07-15.94,.02c-4.8,.08-7.08,2.18-7.13,6.81-.11,9.79-.07,19.59-.01,29.39,.02,3.53,2.08,5.58,5.49,5.63,9.96,.15,19.92,.15,29.88,.01,4.46-.06,8.44-3.76,8.48-7.69,.09-9.8,0-19.59,.04-29.39Zm-51.88,1.04c.13-4.84-2.63-6.64-6.6-6.74-9.96-.23-19.99-.69-29.89,.12-7.68,.63-8.7,2.22-8.53,9.06,.22,8.8,.23,17.62-.02,26.42-.13,4.84,1.84,6.53,6.5,6.28,4.63-.25,9.3-.05,13.95-.05,5.15,0,10.3,.09,15.45-.03,5.51-.12,9.06-3.77,9.07-9.14,.03-8.64-.16-17.29,.07-25.92Zm-51.92,104.3c.13-4.83-1.81-6.56-6.48-6.31-4.82,.25-9.65,.05-14.48,.06-5.49,0-10.99-.21-16.47,.07-3.98,.2-6.73,1.9-6.61,6.74,.22,9.65,.23,19.31-.02,28.95-.11,4.33,1.78,6.1,5.75,6.12,9.82,.05,19.64,.11,29.45-.02,5.04-.07,8.78-4.18,8.79-9.16,0-8.82-.18-17.64,.07-26.45Zm-.94-104.56c.24-4.78-2.15-6.38-5.92-6.46-10.13-.23-20.29-.35-30.41,.03-5.9,.22-7.69,2.38-7.7,7.2-.02,9.64,.08,19.28-.05,28.92-.05,3.97,1.46,5.82,5.54,5.69,4.98-.15,9.97-.03,14.96-.03s9.97,.05,14.96-.02c5.46-.07,8.48-3.1,8.48-8.41,.02-8.98-.31-17.97,.14-26.92Zm-.11,51.5c.03-3.52-1.49-5.19-5.05-5.14-5.32,.06-10.64,.01-15.97,.01s-10.64-.02-15.96,.01c-4.93,.03-6.92,1.94-6.94,6.76-.03,9.48,.15,18.96-.07,28.43-.11,4.59,2.48,6.49,6.22,6.61,9.47,.29,18.96,.25,28.44,.04,5.32-.12,9.3-4.6,9.31-9.78,0-8.98-.05-17.96,.02-26.94Z"/><path class="b" d="M147.76,630.75c-.29,1.34-.62,2.67-1,4-1.49,5.23-3.59,10.37-5.36,15.78-.88-.47-2.33-.92-3.35-1.85-3.5-3.16-6.45-2.83-10.82-.74-5.51,2.65-7.17,5.77-6.91,11.68,.52,11.5,.15,11.51-11.46,14.04-.92,.2-1.8,.59-2.91,.96-2.21-4.5-4.53-8.81-6.48-13.29-1.23-2.83-3.03-3.47-6.02-3.84-7.41-.93-11.94,1.13-15.01,8.56-3.51,8.49-4.15,7.87-12.56,5.68-.49-.13-.96-.26-1.4-.4-4.22-1.31-6.04-3.18-4.16-8.53,1.04-2.96,.38-6.61,.09-9.91-.11-1.17-1.21-2.49-2.22-3.28-1.78-1.4-3.72-2.8-5.83-3.52-1.22-.42-2.56-.48-3.91-.5-.78-.01-1.58-.01-2.35-.05-.31-.02-.67,.12-.95,.29-1.87,1.16-3.74,2.32-5.63,3.5-2.16,1.34-4.34,2.71-6.58,4.1-3.21-3.43-6.49-6.94-10.33-11.06,2.34-3.63,4.84-7.94,7.78-11.93,1.79-2.41,1.39-3.95,.43-6.79-2.69-7.98-7.87-10.06-15.48-9.01-2.6,.36-5.3,.05-8.28,.05-1.02-3.24-1.8-5.74-2.24-7.73-1.47-6.59,.77-7.71,10.45-12.55,1.32-.66,2.62-1.38,3.81-2.01,.08-.76,.18-1.53,.27-2.29,.43-3.48,.92-6.95,1-10.41,.02-1.12-1.56-2.64-2.78-3.36-4.46-2.66-9.07-5.07-13.66-7.59,1.43-5.07,2.78-9.87,3.95-14.02,5.98,0,11.71,.07,17.43-.08,.86-.02,1.96-.87,2.5-1.65,1.76-2.53,3.54-5.1,4.84-7.88,.57-1.21,.46-3.23-.19-4.41-2.42-4.42-5.19-8.63-8.54-14.07,1.53-1.14,3.44-2.23,4.97-3.72,6.47-6.33,6.41-6.34,14.15-1.21,2.69,1.78,5.68,4.91,8.24,4.64,3.6-.37,7.02-3.18,10.29-5.29,.73-.46,1.33-1.56,1.58-2.6,.09-.38,.14-.76,.13-1.09-.19-5.23-.71-10.46-1.13-15.89,1.04-.31,1.6-.54,2.17-.65,4.39-.85,9.64-3.51,12.94-1.98,3.16,1.47,4.32,7.28,6.33,11.2,1.55,3.02,2.8,5.68,7.4,4,.47-.17,.97-.24,1.5-.24,2.03,0,4.42,1.02,6.61,1.38,.85,8.29,1.69,16.57,2.57,25.14-11.69-1.61-22.69-.8-32.71,4.81-9.11,5.09-16.22,12.55-20.1,22.25-8.69,21.71-1.69,46.03,17.07,57.82,16.41,10.31,42.09,13.23,62.87-10.14,4.95,5.54,9.91,11.09,15.67,17.52,2.03-8.01,3.83-16.01,5.44-24.01l2.32,.45c-1.43,7.25-2.91,14.49-4.45,21.72Z"/><path class="b" d="M16.55,83.89c10.02-21.42,27.21-33.93,50.11-38.37,3.89-.76,7.72-1.19,11.5-1.33l.08,2.5c-5.58,.2-11.19,1.12-16.78,2.79-16.01,4.79-28.86,14.4-38.16,27.97-8.53,12.44-10.48,27.22,.24,39.37,7.18,8.14,14.49,16.18,21.46,24.5,8.09,9.65,13.27,20.04,16.09,31.02l-2.54,.65c-2.59-10.12-7.79-19.4-14.58-27.7-6.86-8.41-14.11-16.52-21.47-24.5-9.24-10.01-11.86-24.27-5.95-36.9Z"/><path class="b" d="M60.32,469.42c-.46,4.37,.55,5.42,5.56,6.64,.73,.17,1.41,.51,2.17,.8,1.29-2.25,2.75-4.11,3.46-6.22,1.1-3.29,3.58-2.77,5.98-2.75,2.57,.03,4.97-.49,6.54,2.86,3.14,6.69,3.4,6.56,10.95,4.22l1.84-.33c-.2,1.26-.54,2.38-1.26,3.19-1.87,2.11-6.22,2.03-9.35,2.88-4.21-2.8-2.56-11.91-11.33-9.53-.14,.29-.4,.85-.69,1.4-4.24,8.21-6.47,9.14-14.71,4.97-1.31-.67-2.34-4.34-1.71-5.91,.36-.9,.57-1.71,.66-2.43l1.89,.21Z"/><path class="b" d="M117.49,394.04c-.88,1.84-2.83,4.37-3.53,7.14-.1,.4-.18,.8-.22,1.2-.36,3.37,1.11,7.05,5.48,8.06-7.63,14.59-12.63,30-15.85,46.04-.36,1.82-1.68,4.38-3.13,4.87-5.74,1.92-6.29,6.04-5.7,10.97,.1,.9,.29,1.79,.44,2.65-7.55,2.34-7.81,2.47-10.95-4.22-1.57-3.35-3.97-2.83-6.54-2.86-2.4-.02-4.88-.54-5.98,2.75-.71,2.11-2.17,3.97-3.46,6.22-.76-.29-1.44-.63-2.17-.8-5.01-1.22-6.02-2.27-5.56-6.64,.04-.44,.1-.92,.17-1.43,.23-1.61,.07-4.45-.77-4.83-2.84-1.28-5.24-5.15-9.2-2.28-1.98,1.42-4.15,2.58-6.18,3.82-5.69-4.66-6.05-4.94-1.72-10.5,2.74-3.51,1.49-6.25-.38-8.76-1.07-1.42-3.76-2.6-5.52-2.36-.67,.09-1.3,.14-1.89,.15-4.77,.08-6.99-2.45-6.9-8.35,1.73-.88,3.8-2.15,6.04-3.02,2.94-1.13,3.61-3.09,3.7-6.11,.11-3.66-.95-5.76-4.51-7.02-3.56-1.27-5.82-3.36-3.78-7.91,.92-2.05,1.56-2.77,3.16-2.61,.43,.04,.92,.14,1.5,.3,2.9,.76,6.26,1.72,8.66-2.07,2.33-3.68,3.4-6.74-.08-10.31-2.51-2.58-2.17-4.36-.9-5.91,.98-1.2,2.52-2.26,3.73-3.44,5.38,2.93,10.45,8.29,16.95,.97v-9.81q6.73-3,10.14,3c3.16,5.57,9.9,5.81,13.19,.49,1.1-1.78,2.28-3.52,3.55-5.46,3.7,.72,7.41,.73,7.41,6.08,0,.29-.01,.59-.03,.91-.58,8.51,4.66,11.42,12.06,7.3,1.26-.7,2.49-1.49,4.02-2.42,1.48,1.93,2.98,3.89,4.75,6.2Zm-10.97,32.63c.09-14.95-12.3-29.33-27.83-27.69-16.16-1.8-27.88,13.1-28.06,26.9-.21,16.23,13.97,27.97,26.91,28.2,16.89,.29,28.9-13.01,28.98-27.41Z"/><path class="b" d="M31.49,405.47c.42-.02,.84,0,1.27,.04l-.22,2.7c-1.6-.16-2.24,.56-3.16,2.61-2.04,4.55,.22,6.64,3.78,7.91,3.56,1.26,4.62,3.36,4.51,7.02-.09,3.02-.76,4.98-3.7,6.11-2.24,.87-4.31,2.14-6.04,3.02-.09,5.9,2.13,8.43,6.9,8.35l.04,1.94c-.32,.01-.61,.04-.88,.09-6.35,1.21-6.76,1.34-8.04-4.77-1.69-8.07-3.45-6.45,4.74-10.67,1.61-.84,3.58-2.82,3.62-4.31,.03-1.48-1.87-3.5-3.43-4.45-5.88-3.59-7.23-8.87-3.07-14.43,.63-.85,2.41-1.11,3.68-1.16Z"/><path d="M646.75,16.98V562.73c0,9.19-4.73,13.97-13.86,13.97h-18.67v-1.95c9.95,0,13.59-3.66,13.59-13.69V266.46c0-83.39-.07-166.78,.12-250.17,.02-7.32-5.66-12.89-11.82-12.89V.5h14.03c11.23,0,16.61,5.35,16.61,16.48Z"/><path class="b" d="M616.11,.5V3.4c-89.71,.08-179.43,.05-269.14,.07-7.48,.01-11.8,4.41-11.8,11.99V31.95h-2.75c0-6.85-3.31-10.48-7.65-14.27-1.1-.96-2.32-1.79-3.5-2.67-11.03-8.26-22.91-12.31-36.67-7.67-15.31,5.16-27.65,14.83-37.51,27.07-16.27,20.19-27.86,42.63-28.03,69.51-.04,6.12,.38,12.17,1.66,17.96l-2.66,.61c-3.83-16.73-2.12-33.33,3.58-49.63,5.44-15.56,13.66-29.52,24.61-41.99,11.7-13.34,24.99-23.91,42.75-27.7,10.69-2.27,20.5,.4,29.44,6.2,4.65,3.02,8.81,6.8,13.76,10.68,0-1.8-.01-3.5,0-5.2,.06-8.89,5.45-14.34,14.33-14.34,39.78-.02,79.56,0,119.34,0h150.24Z"/><path d="M589.82,45.65c.01,36.78,.01,73.55,0,110.33,0,8.02-3.24,11.25-11.41,11.26-31.95,.01-63.9,0-95.85,0s-63.57-.1-95.35,.08c-8.04,.05-12.31-4.02-12.23-12.19,.37-36.94,.16-73.88,.16-110.82,.01-7.34,2.46-9.85,9.58-9.85,64.73-.01,129.46-.01,194.19,0,8.73,0,10.91,2.22,10.91,11.19Zm-2.96,109.58c.01-36.45,.01-72.89,0-109.34,0-7.14-1.3-8.47-8.25-8.47-31.96-.01-63.91-.01-95.86-.01s-64.24,0-96.36,.01c-7.28,0-8.29,1-8.29,8.22v109.84c0,7.32,1.52,8.8,9.07,8.8,63.57,.01,127.15,.01,190.72,0,7.24,0,8.97-1.75,8.97-9.05Z"/><path d="M577.5,287.17c4.19,.05,6.54,1.91,6.41,6.68-.26,8.97-.03,17.96-.1,26.95-.04,4.69-3.6,8.15-8.37,8.22-5.15,.06-10.31,.01-15.47,.01-4.82,0-9.65-.12-14.47,.04-4.04,.13-5.67-1.6-5.62-5.62,.14-9.49,.04-18.97,.05-28.45,0-5.21,1.93-7.68,7.13-7.8,10.14-.24,20.29-.15,30.44-.03Zm.43,8.07c.05-3.37-1.4-4.32-4.5-4.2-4.31,.17-8.63,.04-12.94,.04s-8.97,.1-13.44-.03c-2.9-.09-4.25,.87-4.21,3.98,.13,8.96,.11,17.92,.01,26.88-.03,2.9,.88,4.25,3.99,4.2,8.95-.12,17.92-.1,26.88,0,2.89,.03,4.24-.88,4.2-3.99-.12-8.96-.15-17.92,.01-26.88Z"/><path d="M578.96,340.05c3.27-.03,4.89,1.48,4.88,4.79-.03,9.81,.05,19.61-.04,29.42-.04,3.7-4.63,7.45-9.95,7.62-8.97,.28-17.96,.29-26.93,0-5.53-.19-6.99-2.18-6.99-7.81-.01-9.15,.02-18.29-.01-27.43-.02-4.5,2.14-6.64,6.63-6.6,5.32,.05,10.64,0,15.96,.02,5.48,0,10.97,.02,16.45-.01Zm-6.35,38.98c3.83,.04,5.34-1.71,5.3-5.44-.1-8.81-.1-17.62,0-26.43,.04-2.92-.92-4.23-4.01-4.19-8.98,.12-17.96,.12-26.93,0-2.99-.03-4.22,1.05-4.12,4.09,.15,4.48,.04,8.97,.04,13.46s.22,8.99-.07,13.46c-.25,3.77,1.46,5.04,4.86,5.03,8.31-.02,16.62-.07,24.93,.02Z"/><path d="M582.75,188.18c.19,9.95,.15,19.92,.03,29.88-.04,2.96-5.25,7.05-8.83,7.08-9.62,.07-19.25,0-28.88,.04-4.36,.03-6.19-2.1-6.16-6.35,.06-9.63,.15-19.26-.04-28.89-.1-4.87,2.75-6.44,6.72-6.62,5.47-.24,10.95-.06,16.43-.06,5.15,0,10.3,.19,15.44-.06,3.76-.18,5.23,1.96,5.29,4.98Zm-5.8,3.61c.11-4-2.03-5.44-5.31-5.51-8.46-.17-16.94-.07-25.41-.04-3.25,.01-4.61,1.53-4.41,4.93,.27,4.31,.07,8.64,.07,12.95s.15,8.98-.05,13.45c-.15,3.4,.96,4.78,4.53,4.7,8.63-.19,17.27-.18,25.91-.01,3.42,.07,4.73-1.04,4.66-4.57-.19-8.63-.22-17.27,.01-25.9Z"/><path class="b" d="M568.76,600.97c.56-.05,1.95,1.85,1.79,2.12-3.92,6.41-8.01,12.71-12.83,20.23-3.67-7.5-6.61-13.5-9.81-20.04,7.71-.9,14.27-1.72,20.85-2.31Zm-10.62,15.95c2.71-4.22,5.12-7.97,8.11-12.62-5.17,.47-9.19,.83-14.01,1.26,2.33,4.49,4.04,7.77,5.9,11.36Z"/><path d="M553.87,103.23c.03,6.05-3.85,10.14-9.55,10.08-5.13-.05-10.27-4.93-10.37-9.85-.12-5.79,3.95-10.02,9.68-10.08,6.37-.07,10.21,3.63,10.24,9.85Z"/><path class="b" d="M541.98,622.25c.47,.58,.94,1.17,1.4,1.75-1.98,1.82-3.73,4-5.98,5.38-19.39,11.96-38.63,24.19-58.38,35.54-26.96,15.49-55.84,26.34-86.17,33.24-4.43,1-8.95,1.67-13.46,2.3-.96,.14-2.04-.55-3.22-1.59,62.22-10.67,115.22-41.03,165.81-76.62Z"/><path d="M538.98,250.1l2.89,.03c-.02,2.16-.04,4.33-.04,6.49h-2.9c0-2.18,.03-4.35,.05-6.52Z"/><path d="M541.87,263.15l-2.87,.03c-.02-2.19-.07-4.38-.07-6.57h2.9c0,2.19,.02,4.36,.04,6.54Z"/><path d="M525.46,287.12c4.3-.02,6.7,1.4,6.53,6.37-.31,8.65-.09,17.31-.09,25.96,0,7.06-2.58,9.57-9.86,9.58-7.66,.01-15.31,0-22.97,0q-10.72,0-11.17-10.71c-.01-.21-.33-.42-1.4-1.69l-2.14-.33c.54-.62,1.13-1.16,1.74-1.58,12.85-8.82,17.88-21.42,16.52-36.08-.15-1.67-.13-3.2,.05-4.62l1.04,.12c6.65,0,11.75-.19,16.84,.06,.38,.02,.74,.01,1.07-.01l.11,2.86c-.63,.04-1.31,.05-2.03,.05h-13.45v10.02c6.61,0,12.91,.03,19.21,0Zm-3.62,38.99c2.97,.04,4.24-1,4.14-4.06-.15-4.48-.04-8.97-.04-13.45s.25-9.32-.16-13.94c-.12-1.28-2.12-3.29-3.41-3.41-4.44-.42-8.96,.02-13.43-.23-3.02-.18-4.01,1.1-5.17,3.77-2.5,5.74-4.91,11.91-8.99,16.43-3.15,3.5-4,6.55-3.89,10.72,.07,2.92,.97,4.22,4.05,4.17,8.97-.12,17.94-.11,26.9,0Z"/><path d="M526.07,339.95c4.79-.18,5.96,1.84,5.88,6.08-.17,8.32-.05,16.65-.05,24.97,0,6.25-3.02,10.14-9,10.79l-.33-2.86c2.36-.18,3.56-1.57,3.43-4.39-.22-4.65-.06-9.31-.06-13.96s.25-9.34-.16-13.95c-.12-1.3-2.16-3.41-3.37-3.45-9.3-.29-18.62-.29-27.92,0-.08,0-.16,.01-.24,.03l-.42-2.58c1.6-.27,3.19-.47,4.78-.51,9.15-.2,18.32,.18,27.46-.17Z"/><path d="M524.8,235.19c4.16,0,6.34,1.55,6.18,6.21-.28,8.14-.08,16.31-.08,24.46s-1.72,10.87-9.17,11.19l-.11-2.86c2.98-.25,4.16-2.26,4.24-4.97,.22-8.31,.2-16.63,.01-24.95-.07-3.32-1.66-5.39-5.62-5.19-.15,0-.29,0-.44,.02-5.5,.25-11.02,.05-16.52,.05h-12.49c-.06,1.16-.12,2.31-.18,3.44l-2.58-.13c.1-1.34-.3-2.43-2.23-2.65-.21-.02-.45,.01-.7,.09l-.65-2.58c3.69-.91,7.27-1.79,10.88-1.98,9.8-.51,19.64-.14,29.46-.15Z"/><path d="M526.03,183.25c3.27-.02,4.89,1.48,4.88,4.79-.03,9.8,.05,19.59-.04,29.39-.04,3.93-4.02,7.63-8.48,7.69-9.96,.14-19.92,.14-29.88-.01-3.41-.05-5.47-2.1-5.49-5.63-.06-9.8-.1-19.6,.01-29.39,.05-4.63,2.33-6.73,7.13-6.81,5.31-.09,10.62-.02,15.94-.02s10.62,.03,15.93,0Zm-.16,33.91c.2-8.3,.21-16.62-.01-24.92-.08-2.94-1-5.98-4.95-6-8.64-.04-17.28-.15-25.91,.07-2.63,.07-5.13,1.01-5.08,4.68,.12,9.14,.09,18.28,.01,27.41-.03,2.77,1.08,3.9,3.84,3.84,4.48-.11,8.97-.03,13.46-.03s8.65-.23,12.95,.07c3.93,.26,5.61-1.78,5.69-5.12Z"/><path d="M524.91,103.8c.02,5.76-4.36,10.41-9.87,10.5-4.91,.07-10.14-5.18-10.07-10.11,.09-5.97,3.89-9.77,9.79-9.81,6.14-.04,10.13,3.66,10.15,9.42Z"/><path class="b" d="M522.93,468.48c.03,36.44,.02,72.89,.01,109.33,0,.8-.11,1.6-.19,2.83h-72.74v-4.8c0-34.45,0-68.9,0-103.35,0-7.47,4.14-11.62,11.61-11.63,17.8,0,35.61-.02,53.42,.01,5.76,.01,7.89,2.03,7.89,7.61Zm-20.13,39.22c.52-6.59,.33-13.27,.06-19.9-.19-4.49-2.5-7.14-7.52-6.98-6.3,.21-12.61,0-18.91,.07-5.14,.05-7.31,2.1-7.39,7.06-.09,6.63-.1,13.27,0,19.91,.08,4.72,2.24,6.78,7.03,6.91,3.15,.09,6.3,.02,9.45,.02s6.31-.05,9.46,.01c6.05,.12,7.41-1.95,7.81-7.1Z"/><path d="M522.64,241.93c.59,.31,.69,2.78,.16,3.86l-2.41-.61c-.32-.26-.63-.53-.94-.79-11.65,8.57-23.31,17.14-34.96,25.7-.62-.52-1.23-1.05-1.85-1.58,1.6-7.76,3.16-15.54,4.85-23.28,.2-.91,.48-1.89,.55-2.77l2.58,.13c-.33,6.34-.63,12.23-.94,18.27,1.27,0,1.68,.13,1.88-.02,5.39-3.94,10.73-7.94,16.12-11.88,3.42-2.5,6.79-5.1,10.41-7.24,.47-.28,1.12-.4,1.81-.4,.96,0,2,.24,2.74,.61Z"/><path d="M520.39,245.18l2.41,.61c-1.54,3.21-3.33,6.33-5.35,9.26-4.21,6.09-8.64,12.03-13.74,19.09l-1.04-.12c.51-4.33,2.42-7.69,5.12-11.27,4.34-5.75,8.41-11.7,12.6-17.57Z"/><path class="b" d="M519.45,244.39c.31,.26,.62,.53,.94,.79-4.19,5.87-8.26,11.82-12.6,17.57-2.7,3.58-4.61,6.94-5.12,11.27-.18,1.42-.2,2.95-.05,4.62,1.36,14.66-3.67,27.26-16.52,36.08-.61,.42-1.2,.96-1.74,1.58-1.62,1.86-2.85,4.44-3.1,6.64-.49,4.31-2.72,4.47-5.69,4.07-5.34-.7-10.64-1.63-16.72-2.59,3.68-15.77,6.99-31.81,11.25-47.6,3.04-11.25,7.24-22.2,11.24-33.16,.52-1.43,2.38-3.31,3.77-3.76,.25-.08,.49-.11,.7-.09,1.93,.22,2.33,1.31,2.23,2.65-.07,.88-.35,1.86-.55,2.77-1.69,7.74-3.25,15.52-4.85,23.28,.62,.53,1.23,1.06,1.85,1.58,11.65-8.56,23.31-17.13,34.96-25.7Z"/><path class="b" d="M514.41,658.38c.29,.51,.59,1.03,.89,1.54-2.53,1.77-4.94,3.77-7.61,5.28-24.01,13.56-48.43,26.37-74.63,35.12-15.68,5.23-31.87,8.93-47.9,13.04-3.76,.97-7.81,.93-11.74,1.09-1.14,.05-2.31-.82-4.04-1.49,13.18-2.6,25.52-4.2,37.35-7.57,14.81-4.23,29.53-9.14,43.69-15.15,15.73-6.69,30.81-14.9,46.12-22.55,3.92-1.97,7.59-4.44,11.45-6.52,2.05-1.1,4.27-1.87,6.42-2.79Z"/><path d="M502.86,487.8c.27,6.63,.46,13.31-.06,19.9-.4,5.15-1.76,7.22-7.81,7.1-3.15-.06-6.3-.01-9.46-.01s-6.3,.07-9.45-.02c-4.79-.13-6.95-2.19-7.03-6.91-.11-6.64-.1-13.28,0-19.91,.08-4.96,2.25-7.01,7.39-7.06,6.3-.07,12.61,.14,18.91-.07,5.02-.16,7.33,2.49,7.52,6.98Z"/><path d="M494.95,104.29c.01,6.11-3.74,10.05-9.55,10.02-5.73-.03-10.4-4.54-10.37-10,.02-4.71,5.04-9.83,9.73-9.93,6.19-.13,10.17,3.75,10.19,9.91Z"/><path d="M484.46,237.32l.65,2.58c-1.39,.45-3.25,2.33-3.77,3.76-4,10.96-8.2,21.91-11.24,33.16-4.26,15.79-7.57,31.83-11.25,47.6l-2.34-.4c2.22-11.51,4.32-22.35,6.56-33.93-7.27,0-14.06-.05-20.84,.02-2.9,.03-4.33,1.34-4.27,4.57,.11,5.55,.07,11.11,.07,16.66h-2.97c0-5.49,0-10.98,.01-16.47,0-6.26,1.54-7.74,7.97-7.74,5.82-.01,11.65,.11,17.47-.1,1.34-.04,3.34-.87,3.81-1.9,1.05-2.29,1.33-4.93,2.06-8.03h-22.98c-7.87-.01-9.33-1.43-9.33-9.03-.01-8.32-.01-16.64,0-24.96,0-6.03,1.83-7.89,7.95-7.91,10.32-.04,20.64,.12,30.95-.08,3.59-.07,5.73,1.19,6.19,3.45,1.8-.38,3.56-.82,5.3-1.25Zm-12.38,5.55c.1-3.16-1.16-4.67-4.15-4.69-8.96-.06-17.93-.08-26.89,.02-2.57,.03-4.22,1.13-4.07,4.24,.22,4.47,.06,8.96,.05,13.44,0,4.32,.22,8.65-.06,12.95-.25,3.87,1.33,5.37,5.05,5.33,7.63-.07,15.27,.01,22.91-.06,1.01-.01,2.66-.32,2.93-.95,1.56-3.71,3.58-7.48,3.99-11.38,.65-6.24,.03-12.6,.24-18.9Z"/><path d="M472.43,182.34c3.97,.1,6.73,1.9,6.6,6.74-.23,8.63-.04,17.28-.07,25.92-.01,5.37-3.56,9.02-9.07,9.14-5.15,.12-10.3,.03-15.45,.03-4.65,0-9.32-.2-13.95,.05-4.66,.25-6.63-1.44-6.5-6.28,.25-8.8,.24-17.62,.02-26.42-.17-6.84,.85-8.43,8.53-9.06,9.9-.81,19.93-.35,29.89-.12Zm-5.39,39.77c2.63-.07,5.07-1.07,5.02-4.74-.14-9.13-.1-18.26-.02-27.4,.03-2.8-1.16-3.84-3.89-3.78-4.48,.11-8.97,.03-13.45,.03s-8.65,.2-12.95-.06c-3.8-.23-4.87,1.34-4.79,4.95,.2,8.46,.24,16.94-.01,25.4-.12,3.95,1.86,5.55,5.18,5.63,8.3,.18,16.61,.21,24.91-.03Z"/><path d="M464.99,105.33c0,5.26-4.24,9.78-9.34,9.94-5.46,.17-10.76-5.15-10.59-10.64,.17-5.73,4.13-9.25,10.4-9.25,5.89-.01,9.53,3.79,9.53,9.95Z"/><path class="b" d="M451.9,624.36c.84,3.14-.78,4.73-3.29,6.29-3.85,2.39-3.62,4.3,.39,6.49,1.14,.62,2.28,1.23,3.6,1.95-.66,2.5-1.31,4.95-1.78,6.71-2.66,.21-4.97-.02-6.9,.74-.86,.34-1.73,3.44-1.21,4.01,4.3,4.65,1.18,7.26-2.32,9.9q-9.01-3.7-9.57,5.52c-4.24,2.37-7.63,2.6-10.01-2.82-.9-2.04-3.69-2.99-4.86,.01-2.07,5.32-5.31,5.32-9.85,2.54,0-.76,.02-1.91,0-3.05-.12-5.11-1.96-6.28-6.14-3.41-4.42,3.04-6.08-.58-8.74-3.05,1.38-2.44,2.58-4.55,4.05-7.15-1.28-.79-2.73-2.46-3.87-2.27-6.13,1.06-6.62-3.03-7.2-7.52,1.46-.79,3.56-1.28,4.41-2.58,.81-1.24,.83-4.63,.29-4.85-5.12-2.06-5.35-5.45-3.24-9.77q9.92-1.08,5.62-10.1c1.73-1.44,3.6-2.99,5.6-4.65,8.87,4.16,8.99,4.1,9.35-6.05,3.54-1.06,6.99-3.26,9.04,2.69,1.03,3,4.34,2.66,5.8-.63,1.7-3.83,4.15-4.52,7.36-2.5,1.08,.68,1.58,2.46,2.08,3.84,.47,1.3,.18,3.54,.96,3.94,1.33,.67,3.3,.53,4.87,.17,1.34-.31,2.5-1.41,3.64-2.1,4.03,2.59,6.52,5.05,2.84,9.9-1.88,2.49-.68,5.03,3.07,5.12,2.37,.06,5.1-.72,6.01,2.68Zm-33.1,26.07c8.02,.43,16.47-8.51,16.14-16.66-.34-8.64-7.12-16.07-16.32-16.12-9.14,0-16.44,6.95-16.55,15.72-.13,10.44,8.27,16.6,16.73,17.06Z"/><path d="M425.56,95.38c5.73,0,9.47,3.93,9.47,9.96s-3.74,9.97-9.47,9.97-9.47-3.93-9.47-9.97,3.73-9.96,9.47-9.96Z"/><path d="M420.63,287.07c4.67-.25,6.61,1.48,6.48,6.31-.25,8.81-.07,17.63-.07,26.45-.01,4.98-3.75,9.09-8.79,9.16-9.81,.13-19.63,.07-29.45,.02-3.97-.02-5.86-1.79-5.75-6.12,.25-9.64,.24-19.3,.02-28.95-.12-4.84,2.63-6.54,6.61-6.74,5.48-.28,10.98-.07,16.47-.07,4.83-.01,9.66,.19,14.48-.06Zm-3.45,39.03c2.72,.06,3.95-.93,3.93-3.76-.08-9.15-.05-18.3-.02-27.45,.01-3.31-1.62-4.82-4.88-4.81-8.49,.02-16.97,0-25.46,0-3.58,0-5.57,1.85-5.62,5.36-.1,8.48-.15,16.97,.03,25.45,.07,3.31,1.58,5.51,5.58,5.24,4.14-.27,8.31-.06,12.47-.06,4.66,0,9.32-.08,13.97,.03Z"/><path d="M421.45,339.01c4.02-.05,5.69,1.58,5.63,5.62-.14,8.65-.04,17.31-.04,25.96,0,4.74-1.39,7.72-4.46,9.21-1.61,.79-3.68,1.16-6.25,1.16-4.36,0-8.72,0-13.07,0v-2.94c4.74,0,9.49-.03,14.23-.18,1.23-.04,3.39-2.16,3.43-3.37,.29-9.29,.29-18.6,0-27.89-.04-1.22-2.13-3.28-3.41-3.4-4.61-.41-9.29-.16-13.94-.17-4.31,0-8.64,.2-12.95-.05-4.01-.24-5.39,2.07-5.46,5.33-.09,4.07-.14,8.13-.14,12.21h-1.89c0-4.74,0-9.33,.01-13.93,0-5.39,1.95-7.46,7.35-7.49,10.32-.08,20.64,.06,30.96-.07Z"/><path d="M420.25,182.36c3.77,.08,6.16,1.68,5.92,6.46-.45,8.95-.12,17.94-.14,26.92,0,5.31-3.02,8.34-8.48,8.41-4.99,.07-9.98,.02-14.96,.02s-9.98-.12-14.96,.03c-4.08,.13-5.59-1.72-5.54-5.69,.13-9.64,.03-19.28,.05-28.92,.01-4.82,1.8-6.98,7.7-7.2,10.12-.38,20.28-.26,30.41-.03Zm-5.45,39.78c3.26-.06,5.58-1.44,5.34-5.46-.25-4.31-.06-8.64-.06-12.96s-.17-8.65,.06-12.96c.18-3.52-1.19-4.67-4.64-4.6-8.47,.18-16.96,.25-25.43-.02-4.48-.14-5.91,2.11-5.95,5.91-.08,8.14-.01,16.29-.03,24.43,0,3.56,1.77,5.63,5.28,5.68,8.48,.12,16.96,.15,25.43-.02Z"/><path d="M421.01,235.18c3.56-.05,5.08,1.62,5.05,5.14-.07,8.98-.02,17.96-.02,26.94-.01,5.18-3.99,9.66-9.31,9.78-9.48,.21-18.97,.25-28.44-.04-3.74-.12-6.33-2.02-6.22-6.61,.22-9.47,.04-18.95,.07-28.43,.02-4.82,2.01-6.73,6.94-6.76,5.32-.03,10.64-.01,15.96-.01s10.65,.05,15.97-.01Zm-6.02,38.98c3.53,.02,5.14-1.56,5.11-5.1-.06-8.65-.05-17.3,0-25.94,.02-3.61-1.76-5.05-5.23-4.99-4.15,.08-8.31,.02-12.47,.02s-8,.24-11.97-.06c-4.59-.35-6.31,1.87-6.33,6.04-.02,7.98,.02,15.97-.02,23.95-.01,4.05,1.88,6.07,5.96,6.07,8.32-.03,16.63-.05,24.95,.01Z"/><path d="M403.26,378.02v2.94h-8.18v-2.96c2.73,0,5.45,.02,8.18,.02Z"/><path d="M364.74,695.59c4.08,.03,6.37,2.53,6.37,6.94,0,3.41-3.47,6.85-6.93,6.88-3.65,.04-7.06-3.59-7.01-7.44,.06-4.15,2.74-6.42,7.57-6.38Zm-.11,10.58c1.15,.21,2.73-1.96,5.35-4.05-2.92-1.67-4.62-3.43-6.19-3.31-1.29,.1-2.41,2.42-3.6,3.75,1.46,1.29,2.79,3.32,4.44,3.61Z"/><path class="b" d="M335.1,327.63c.15,5.67,.39,11.28,.84,15.93-.58-.91-.85-2.02-.85-3.53,0-4.13,.01-8.27,.01-12.4Z"/><path class="b" d="M253.84,171.48c.11,.14,.22,.28,.34,.41l-2.1,2.09c-3.44-3.97-6.33-7.4-9.31-10.75-9.57-10.79-19.23-21.55-23.43-35.8-.48-1.65-.91-3.29-1.28-4.94l2.66-.61c1.38,6.3,3.77,12.29,7.67,17.75,7.89,11.04,17.1,21.13,25.45,31.85Z"/><path class="b" d="M170.37,122.74c5.6-1.43,8.79,4.21,8.04,10.74-.78,6.84-1.37,13.7-2,20.56-1.12,12.15-12.81,23.56-27.12,22.97,15.15-5.66,20.81-16.46,21.12-30.88,.12-5.93,.73-11.85,.9-17.78,.06-1.83-.6-3.68-.94-5.61Z"/><path class="b" d="M164.5,125.42c1.3,0,3.76,1.76,3.71,2.57-.69,11.18,.93,22.65-4.24,33.31-4.83,9.97-16.38,14.57-23.6,13.8-12.5-1.32-20.65-8.65-23.39-19.24-1.61-6.22-.5-13.19-.33-19.81,.09-3.4,.8-6.79,1.3-10.75,15.68,0,31.12-.06,46.55,.12Zm-15.76,21.63c3.33-2.23,2.09-9.31-1.07-11.95-3.44-2.87-9.23-2.39-12.54,1.03-2.58,2.68-2.69,9.1,.53,11.6,2.68,2.08,2.99,4.31,2.82,7.16-.12,1.96-.03,3.93-.03,6.12h4.51c1.54-4.98,.45-10.38,5.78-13.96Z"/><path class="b" d="M165.77,478.73c.51,1.11,1.51,2.26,1.46,3.34-.5,9.69-1,19.38-1.86,29.03-1.12,12.57-2.54,25.12-3.88,37.66-.98,9.13-1.58,18.32-3.16,27.34-1.92,11-3.96,21.98-6.12,32.93l-2.32-.45c8.7-43.21,11.8-86.36,14.58-129.56,.44-.1,.87-.19,1.3-.29Z"/><path class="b" d="M163.37,122.07h-4.98c0-5.29,.02-10.41-.01-15.52-.04-7.93-6-14.66-13.09-14.05-6.93,.59-13.04,3.96-12.9,14.16,.04,2.5-.75,5.01-1.75,7.42-6.01-8.72,.05-21.82,10.2-24.78,11.56-3.37,22.19,7.6,21.69,16.88-.28,5.17,.51,10.41,.84,15.89Z"/><path d="M147.67,135.1c3.16,2.64,4.4,9.72,1.07,11.95-5.33,3.58-4.24,8.98-5.78,13.96h-4.51c0-2.19-.09-4.16,.03-6.12,.17-2.85-.14-5.08-2.82-7.16-3.22-2.5-3.11-8.92-.53-11.6,3.31-3.42,9.1-3.9,12.54-1.03Z"/><path class="b" d="M146.76,634.75l2.13,.62c-8.29,28.56-11.45,57.48-12.79,88.27-1.21-2.02-2.56-3.22-2.53-4.39,.15-7.26,.37-14.54,1.04-21.77,.65-6.99,1.83-13.93,2.85-20.88,.86-5.81,2.01-11.58,2.61-17.41,.2-1.9-.31-4.58-1.56-5.78-2.29-2.18-4.54-5.06-8.91-2.98-4.3,2.04-7.04,4.07-6.28,9.46,.59,4.24,.12,8.62,.12,13.31-5.55,1.47-10.96,3.1-16.48,4.2-1.21,.25-3.39-1.01-4.09-2.19-2.17-3.64-4.12-7.47-5.63-11.42-1.72-4.49-5.31-2.84-8.37-3.21-2.78-.34-4.46,.52-5.59,3.33-1.21,3-3.54,5.56-4.66,8.58-1.75,4.69-4.43,5.19-8.66,3.36-1.98-.86-4.05-1.6-6.15-2.18l.67-2.34c.44,.14,.91,.27,1.4,.4,8.41,2.19,9.05,2.81,12.56-5.68,3.07-7.43,7.6-9.49,15.01-8.56,2.99,.37,4.79,1.01,6.02,3.84,1.95,4.48,4.27,8.79,6.48,13.29,1.11-.37,1.99-.76,2.91-.96,11.61-2.53,11.98-2.54,11.46-14.04-.26-5.91,1.4-9.03,6.91-11.68,4.37-2.09,7.32-2.42,10.82,.74,1.02,.93,2.47,1.38,3.35,1.85,1.77-5.41,3.87-10.55,5.36-15.78Z"/><path class="b" d="M142.22,68.27l-1.41,2.04c-11.39-6.31-22.33-13.75-34.32-18.55-9.1-3.64-18.62-5.42-28.25-5.07l-.08-2.5c18.48-.72,35.59,5.55,51.74,15.32,4.3,2.6,8.26,5.77,12.32,8.76Z"/><path class="b" d="M119.3,389.27c3.28,2.79,2.02,5.24,.25,8.18-.84,1.4-2.53,2.55-2.94,4.19l-2.65-.46c.7-2.77,2.65-5.3,3.53-7.14-1.77-2.31-3.27-4.27-4.75-6.2-1.53,.93-2.76,1.72-4.02,2.42-7.4,4.12-12.64,1.21-12.06-7.3,.02-.32,.03-.62,.03-.91l2.74-.03c0,.87,.03,1.74,.08,2.6,.23,4.02,2.99,5.46,6.48,3.58,1-.54,2.28-.73,3.08-1.46,4.79-4.41,7.17-.07,10.23,2.53Z"/><path class="b" d="M78.69,398.98c15.53-1.64,27.92,12.74,27.83,27.69-.08,14.4-12.09,27.7-28.98,27.41-12.94-.23-27.12-11.97-26.91-28.2,.18-13.8,11.9-28.7,28.06-26.9Zm24.9,27.9c.13-13.95-11.17-25.63-24.46-25.66-14.2-.03-24.86,9.82-25.4,24.59-.55,15.13,12.11,25.52,24.53,25.1,13.67,.89,25.22-11.75,25.33-24.03Z"/><path class="b" d="M99.47,375.56c0,2.2-.07,4.34-.04,6.46l-2.74,.03c0-5.35-3.71-5.36-7.41-6.08-1.27,1.94-2.45,3.68-3.55,5.46-3.29,5.32-10.03,5.08-13.19-.49q-3.41-6-10.14-3l-2.27-.06c1.19-4.08,4.31-5.95,9.67-5.69,1.15,.05,2.35,1.85,3.3,3.02,1.77,2.18,2.92,5.42,5.16,6.55,3.31,1.66,5.29-1.41,6.33-4.23,1.77-4.79,4.76-5.61,9.16-3.59,1.72,.78,3.67,1.05,5.72,1.62Z"/><path class="b" d="M98.19,312.56l-1.35,2.04c-5.29-3.53-10.41-7.28-15.19-11.39-13.17-11.32-20.72-26.84-23.97-43.94-1.47-7.79-1.73-15.6-1.3-23.43l2.53,.13c-.07,1.21-.1,2.42-.1,3.63,.02,9.2,1.48,18.65,3.98,27.52,4.23,14.98,13.12,27.46,24.94,37.55,3.35,2.85,6.85,5.45,10.46,7.89Z"/><path class="b" d="M92.3,512.02l.17,1.79c-.53,0-1.03,.07-1.5,.24-4.6,1.68-5.85-.98-7.4-4-2.01-3.92-3.17-9.73-6.33-11.2-3.3-1.53-8.55,1.13-12.94,1.98-.57,.11-1.13,.34-2.17,.65,.42,5.43,.94,10.66,1.13,15.89,.01,.33-.04,.71-.13,1.09l-2.42-.21c-.37-4.68-.66-9.58-1.19-14.45-.4-3.78,1.39-5.41,4.88-5.97,4.94-.81,10.75-3.79,14.52-2.11,3.53,1.58,5.39,7.83,7.09,12.37,1.42,3.78,3.8,4.19,6.29,3.93Z"/><path class="b" d="M64.48,671.33l-.67,2.34c-1.35-.38-2.72-.69-4.09-.91-3.46-.57-3.3-2.68-3.08-5.07,.24-2.6,.39-5.23,.96-7.76,1.44-6.37-2.28-9.32-7.34-11.3-.53-.21-1.18-.32-1.84-.32l.03-2.72c1.35,.02,2.69,.08,3.91,.5,2.11,.72,4.05,2.12,5.83,3.52,1.01,.79,2.11,2.11,2.22,3.28,.29,3.3,.95,6.95-.09,9.91-1.88,5.35-.06,7.22,4.16,8.53Z"/><path class="b" d="M60.71,518.25l2.42,.21c-.25,1.04-.85,2.14-1.58,2.6-3.27,2.11-6.69,4.92-10.29,5.29-2.56,.27-5.55-2.86-8.24-4.64-7.74-5.13-7.68-5.12-14.15,1.21-1.53,1.49-3.44,2.58-4.97,3.72l-2-.36c.1-.52,.22-1.02,.36-1.48,.3-.99,1.54-1.69,2.36-2.52q9.79-9.82,21.18-2.43c6.39,4.12,2.95,4.14,14.91-1.6Z"/><path class="b" d="M61.09,172.34c3.18,12.35,3.36,25.46,1.32,39.11-1.22,8.16-3.06,16.35-3.5,24.52l-2.53-.13c.32-5.81,1.02-11.64,1.88-17.48,1.71-11.53,2.79-23.41,1.98-34.99-.25-3.55-.82-7.01-1.69-10.38l2.54-.65Z"/><path class="b" d="M62.4,377.94v9.81c-6.5,7.32-11.57,1.96-16.95-.97-1.21,1.18-2.75,2.24-3.73,3.44l-1.93-1.64c1.88-1.75,3.82-3.56,5.97-5.56,1.81,1.15,3.96,2.85,6.39,3.95,1.53,.69,3.72,1.1,5.12,.5,1.14-.49,1.57-2.66,2.27-4.11,.13-.27,0-.66,.02-.99,.01-1.72,.19-3.21,.57-4.49l2.27,.06Z"/><path class="b" d="M59.72,463.16c.84,.38,1,3.22,.77,4.83-.07,.51-.13,.99-.17,1.43l-1.89-.21c.36-3.18-1.71-4.89-5.07-6.34-.65,.51-1.36,1.19-2.18,1.69-6.94,4.19-10.19,3.47-14.7-3.45-.55-.85-.52-2.47-.11-3.47,.74-1.78,2.41-3.24,2.88-5.05,.52-1.96,.77-4.52-.11-6.14-.48-.89-2.61-1.35-4.27-1.28l-.04-1.94c.59-.01,1.22-.06,1.89-.15,1.76-.24,4.45,.94,5.52,2.36,1.87,2.51,3.12,5.25,.38,8.76-4.33,5.56-3.97,5.84,1.72,10.5,2.03-1.24,4.2-2.4,6.18-3.82,3.96-2.87,6.36,1,9.2,2.28Z"/><path class="b" d="M48.45,645.59l-.03,2.72c-.75,0-1.51,.15-2.08,.44-1.81,.93-3.55,1.98-5.27,3.08l-1.55-2.5c1.89-1.18,3.76-2.34,5.63-3.5,.28-.17,.64-.31,.95-.29,.77,.04,1.57,.04,2.35,.05Z"/><path class="b" d="M42.62,396.13c3.48,3.57,2.41,6.63,.08,10.31-2.4,3.79-5.76,2.83-8.66,2.07-.58-.16-1.07-.26-1.5-.3l.22-2.7c1.36,.13,2.73,.46,4.09,.41,3.35-.1,5.32-3.3,3.88-6.36-1.23-2.63-2.77-5.12-4.28-7.86,1.11-1.04,2.22-2.07,3.34-3.12l1.93,1.64c-1.27,1.55-1.61,3.33,.9,5.91Z"/><path class="b" d="M39.52,649.33l1.55,2.5c-1.03,.66-2.05,1.33-3.08,2-1.57,1.02-2.75,1.77-3.73,2.23l-1.32-2.63c2.24-1.39,4.42-2.76,6.58-4.1Z"/><path class="b" d="M32.94,653.43l1.32,2.63c-2.77,1.32-3.85,.31-7.25-3.56-2.82-3.2-5.53-6.49-8.45-9.93,2.55-3.69,5.3-7.33,7.64-11.22,1.34-2.21,2.67-4.3,1.21-7.57-2.19-4.89-4.97-6.92-10.42-6.26-4.03,.49-9.33,1.23-12.01-.82-2.08-1.6-2.12-5.65-2.89-9.11l2.73-.63c.44,1.99,1.22,4.49,2.24,7.73,2.98,0,5.68,.31,8.28-.05,7.61-1.05,12.79,1.03,15.48,9.01,.96,2.84,1.36,4.38-.43,6.79-2.94,3.99-5.44,8.3-7.78,11.93,3.84,4.12,7.12,7.63,10.33,11.06Z"/><path class="b" d="M32.44,540.71c.65,1.18,.76,3.2,.19,4.41-1.3,2.78-3.08,5.35-4.84,7.88-.54,.78-1.64,1.63-2.5,1.65-5.72,.15-11.45,.08-17.43,.08-1.17,4.15-2.52,8.95-3.95,14.02,4.59,2.52,9.2,4.93,13.66,7.59,1.22,.72,2.8,2.24,2.78,3.36-.08,3.46-.57,6.93-1,10.41l-2.1-.25c-.21-.74-.66-1.41-.49-1.86,3.39-9.28-4.29-11.07-9.72-14.09-6.84-3.79-6.91-3.6-4.47-11.25,1.18-3.69,2.21-7.42,3.23-10.88,4.46,0,8.44-.43,12.28,.1,5.65,.78,9.09-1.34,10.66-6.62,.42-1.41,.79-3.33,.18-4.48-2.07-3.86-4.79-7.39-6.84-11.27-.45-.84-.4-2.06-.18-3.23l2,.36c3.35,5.44,6.12,9.65,8.54,14.07Z"/><path class="b" d="M17.25,589.86l2.1,.25c-.09,.76-.19,1.53-.27,2.29-1.19,.63-2.49,1.35-3.81,2.01-9.68,4.84-11.92,5.96-10.45,12.55l-2.73,.63c-.17-.75-.37-1.48-.64-2.15-2.01-4.97-.91-7.88,4.19-9.82,3.95-1.49,7.61-3.74,11.61-5.76Z"/></g><g><path class="d" d="M210.05,217.31c.47-3.66,.9-6.92,1.29-10.2,1.2-9.99,5.9-13.49,14.56-15.99,1.81-.53,4.21-2.16,4.66-3.76,2.63-9.24,9.6-12.04,17.99-13.09,.8-.09,1.61-.13,3.53-.29-3.44-3.97-6.33-7.4-9.31-10.75-9.57-10.79-19.23-21.55-23.43-35.8-.48-1.65-.91-3.29-1.28-4.94-3.83-16.73-2.12-33.33,3.58-49.63,5.44-15.56,13.66-29.52,24.61-41.99,11.7-13.34,24.99-23.91,42.75-27.7,10.69-2.27,20.5,.4,29.44,6.2,4.65,3.02,8.81,6.8,13.76,10.68,0-1.8-.01-3.5,0-5.2,.06-8.89,5.45-14.34,14.33-14.34,39.78-.02,79.56,0,119.34,0h164.27c11.23,0,16.61,5.35,16.61,16.48V562.73c0,9.19-4.73,13.97-13.86,13.97h-18.67c-29.17,.01-58.4,.01-87.97,.01,.13,6.52-3.27,7.1-7.78,7.06-21.63-.16-43.27-.15-64.91-.01-4.18,.03-6.83-.99-6.66-6.05h-6.09c-31.46,0-62.91,.05-94.37-.08-3.31-.01-6.62-1.07-9.33-1.54-2.21,10.45-5.16,21.45-6.66,32.64-.9,6.76,.32,13.83,.81,20.74,.49,6.87,1.42,13.71,1.86,20.59,.8,12.51,1.33,25.04,2.06,37.56,.94,15.95,1.99,31.9,2.95,47.85,.1,1.58-.12,3.18-1.24,4.96-.56-2.01-1.5-3.99-1.62-6.03-.49-8.25-.64-16.52-1.1-24.77-.93-16.78-1.94-33.57-3.02-50.35-.53-8.36-1.29-16.71-1.95-25.07-.48-6.13-.98-12.25-1.48-18.47-3.78,4.43-7.18,8.75-10.92,12.74-13.57,14.45-31.06,21.47-49.99,24.96-10.28,1.9-20.89,3.2-31.32,2.96-27.31-.61-53.75-6.15-79.01-16.79-1.34-.57-2.53-1.49-3.81-2.21-1.12-.64-2.27-1.22-3.78-2.03-8.29,28.56-11.45,57.48-12.79,88.27-1.21-2.02-2.56-3.22-2.53-4.39,.15-7.26,.37-14.54,1.04-21.77,.65-6.99,1.83-13.93,2.85-20.88,.86-5.81,2.01-11.58,2.61-17.41,.2-1.9-.31-4.58-1.56-5.78-2.29-2.18-4.54-5.06-8.91-2.98-4.3,2.04-7.04,4.07-6.28,9.46,.59,4.24,.12,8.62,.12,13.31-5.55,1.47-10.96,3.1-16.48,4.2-1.21,.25-3.39-1.01-4.09-2.19-2.17-3.64-4.12-7.47-5.63-11.42-1.72-4.49-5.31-2.84-8.37-3.21-2.78-.34-4.46,.52-5.59,3.33-1.21,3-3.54,5.56-4.66,8.58-1.75,4.69-4.43,5.19-8.66,3.36-1.98-.86-4.05-1.6-6.15-2.18-1.35-.38-2.72-.69-4.09-.91-3.46-.57-3.3-2.68-3.08-5.07,.24-2.6,.39-5.23,.96-7.76,1.44-6.37-2.28-9.32-7.34-11.3-.53-.21-1.18-.32-1.84-.32-.75,0-1.51,.15-2.08,.44-1.81,.93-3.55,1.98-5.27,3.08-1.03,.66-2.05,1.33-3.08,2-1.57,1.02-2.75,1.77-3.73,2.23-2.77,1.32-3.85,.31-7.25-3.56-2.82-3.2-5.53-6.49-8.45-9.93,2.55-3.69,5.3-7.33,7.64-11.22,1.34-2.21,2.67-4.3,1.21-7.57-2.19-4.89-4.97-6.92-10.42-6.26-4.03,.49-9.33,1.23-12.01-.82-2.08-1.6-2.12-5.65-2.89-9.11-.17-.75-.37-1.48-.64-2.15-2.01-4.97-.91-7.88,4.19-9.82,3.95-1.49,7.61-3.74,11.61-5.76-.21-.74-.66-1.41-.49-1.86,3.39-9.28-4.29-11.07-9.72-14.09-6.84-3.79-6.91-3.6-4.47-11.25,1.18-3.69,2.21-7.42,3.23-10.88,4.46,0,8.44-.43,12.28,.1,5.65,.78,9.09-1.34,10.66-6.62,.42-1.41,.79-3.33,.18-4.48-2.07-3.86-4.79-7.39-6.84-11.27-.45-.84-.4-2.06-.18-3.23,.1-.52,.22-1.02,.36-1.48,.3-.99,1.54-1.69,2.36-2.52q9.79-9.82,21.18-2.43c6.39,4.12,2.95,4.14,14.91-1.6-.37-4.68-.66-9.58-1.19-14.45-.4-3.78,1.39-5.41,4.88-5.97,4.94-.81,10.75-3.79,14.52-2.11,3.53,1.58,5.39,7.83,7.09,12.37,1.42,3.78,3.8,4.19,6.29,3.93,1.54-.14,3.12-.55,4.55-.56,.9,0,2.39-4.04,2.55-6.31,.88-12.16,1.44-24.35,2.08-36.53,.06-1.14-.12-2.29-.29-4.99-1.76,2.07-3.27,3.08-3.61,4.38-.53,2.06-.44,4.53-.76,6.63-.2,1.26-.54,2.38-1.26,3.19-1.87,2.11-6.22,2.03-9.35,2.88-4.21-2.8-2.56-11.91-11.33-9.53-.14,.29-.4,.85-.69,1.4-4.24,8.21-6.47,9.14-14.71,4.97-1.31-.67-2.34-4.34-1.71-5.91,.36-.9,.57-1.71,.66-2.43,.36-3.18-1.71-4.89-5.07-6.34-.65,.51-1.36,1.19-2.18,1.69-6.94,4.19-10.19,3.47-14.7-3.45-.55-.85-.52-2.47-.11-3.47,.74-1.78,2.41-3.24,2.88-5.05,.52-1.96,.77-4.52-.11-6.14-.48-.89-2.61-1.35-4.27-1.28-.32,.01-.61,.04-.88,.09-6.35,1.21-6.76,1.34-8.04-4.77-1.69-8.07-3.45-6.45,4.74-10.67,1.61-.84,3.58-2.82,3.62-4.31,.03-1.48-1.87-3.5-3.43-4.45-5.88-3.59-7.23-8.87-3.07-14.43,.63-.85,2.41-1.11,3.68-1.16,.42-.02,.84,0,1.27,.04,1.36,.13,2.73,.46,4.09,.41,3.35-.1,5.32-3.3,3.88-6.36-1.23-2.63-2.77-5.12-4.28-7.86,1.11-1.04,2.22-2.07,3.34-3.12,1.88-1.75,3.82-3.56,5.97-5.56,1.81,1.15,3.96,2.85,6.39,3.95,1.53,.69,3.72,1.1,5.12,.5,1.14-.49,1.57-2.66,2.27-4.11,.13-.27,0-.66,.02-.99,.01-1.72,.19-3.21,.57-4.49,1.19-4.08,4.31-5.95,9.67-5.69,1.15,.05,2.35,1.85,3.3,3.02,1.77,2.18,2.92,5.42,5.16,6.55,3.31,1.66,5.29-1.41,6.33-4.23,1.77-4.79,4.76-5.61,9.16-3.59,1.72,.78,3.67,1.05,5.72,1.62,0,2.2-.07,4.34-.04,6.46,0,.87,.03,1.74,.08,2.6,.23,4.02,2.99,5.46,6.48,3.58,1-.54,2.28-.73,3.08-1.46,4.79-4.41,7.17-.07,10.23,2.53,3.28,2.79,2.02,5.24,.25,8.18-.84,1.4-2.53,2.55-2.94,4.19-.21,.85-.08,1.83,.7,3.05,1.76,2.76,2.94,3.29,4.74,.23,3.37-5.76,6.37-11.82,10.34-17.15,4.5-6.06,9.64-11.7,14.98-17.05,5.17-5.19,10.95-9.77,16.4-14.57-14.04-11.82-30.96-19.72-46.93-29.19-6.72-3.98-13.49-8.01-20-12.36-5.29-3.53-10.41-7.28-15.19-11.39-13.17-11.32-20.72-26.84-23.97-43.94-1.47-7.79-1.73-15.6-1.3-23.43,.32-5.81,1.02-11.64,1.88-17.48,1.71-11.53,2.79-23.41,1.98-34.99-.25-3.55-.82-7.01-1.69-10.38-2.59-10.12-7.79-19.4-14.58-27.7-6.86-8.41-14.11-16.52-21.47-24.5-9.24-10.01-11.86-24.27-5.95-36.9,10.02-21.42,27.21-33.93,50.11-38.37,3.89-.76,7.72-1.19,11.5-1.33,18.48-.72,35.59,5.55,51.74,15.32,4.3,2.6,8.26,5.77,12.32,8.76,1.85,1.36,3.73,2.68,5.67,3.89,2.45,1.52,5.84,1.57,8.82,2.19,19.76,4.14,33.96,15.89,41.76,33.94,8.6,19.91,7.88,40.31-5.24,58.35-1.61,2.23-2.7,4.31-3.93,5.94-.93,1.23-1.25,2.47-1.18,3.72"/><path class="c" d="M522.9,381.79c-.4,.05-.82,.08-1.24,.09-8.81,.3-17.66,.41-26.45-.05-5.55-.28-7.38-2.21-7.22-7.72,.05-1.99,0-3.98,0-5.97-.23,.01-.46,.02-.69,.04-.44,7.37-.87,14.75-1.36,22.81,7.94,0,15.24,.08,22.53-.03,3.71-.06,5.55,1.38,5.48,5.24-.1,6.16-.15,12.32,.02,18.48,.1,3.32-1.25,4.35-4.43,4.28-7.65-.15-15.35,.46-22.95-.21-6.09-.54-8.6,2.03-10.7,7.23-3.54,8.79-9.35,16.08-16.92,21.91-10.1,7.79-21.69,11.4-34.21,13.07-15.72,2.1-31.32,.88-46.82-1.34-11.09-1.59-21.98-4.51-33-6.67-5.7-1.11-9.94,2.51-9.75,8.38,.57,17.35,1.56,34.69,1.89,52.05,.33,17.46,.13,34.94,.05,52.42-.04,6.63,2.05,8.94,8.75,8.94,32.13,.01,64.25,.01,96.37,.01h4.8v-5.89c0-32.45,0-64.91,0-97.37,.01-8.2,5.35-13.58,13.5-13.58,17.98-.02,35.95-.01,53.93-.01,8.3,0,11.43,3.07,11.43,11.22v105.63h88.31c9.95,0,13.59-3.66,13.59-13.69V266.46c0-83.39-.07-166.78,.12-250.17,.02-7.32-5.66-12.89-11.82-12.89-89.71,.08-179.43,.05-269.14,.07-7.48,.01-11.8,4.41-11.8,11.99V31.95c-.02,98.56,0,197.12-.07,295.68,0,4.13-.01,8.27-.01,12.4,0,1.51,.27,2.62,.85,3.53,.6,.99,1.57,1.75,2.93,2.52,11.2,6.33,22.29,12.88,33.31,19.53,3.63,2.19,6.93,4.95,10.95,7.85v-12.96c0-4.74,0-9.33,.01-13.93,0-5.39,1.95-7.46,7.35-7.49,10.32-.08,20.64,.06,30.96-.07,4.02-.05,5.69,1.58,5.63,5.62-.14,8.65-.04,17.31-.04,25.96,0,4.74-1.39,7.72-4.46,9.21-1.61,.79-3.68,1.16-6.25,1.16-4.36,0-8.72,0-13.07,0h-8.18c-.08,.51-.16,1.02-.24,1.52,5.41,1.15,11.01,3.84,16.18,3.16,4.9-.64,9.07-2.1,12.5-4.28,7.61-4.84,11.54-13.26,11.54-24.25,0-3.5-.01-6.99,.01-10.49,.01-5.29,1.55-7.28,6.79-7.45,2.87-.1,3.75-1.43,4.16-3.73,.35-1.91,.61-3.84,.97-6.09-1.36-.11-2.63-.28-3.9-.31-6.71-.13-8.02-1.45-8.03-8.21v-9.49c0-5.49,0-10.98,.01-16.47,0-6.26,1.54-7.74,7.97-7.74,5.82-.01,11.65,.11,17.47-.1,1.34-.04,3.34-.87,3.81-1.9,1.05-2.29,1.33-4.93,2.06-8.03h-22.98c-7.87-.01-9.33-1.43-9.33-9.03-.01-8.32-.01-16.64,0-24.96,0-6.03,1.83-7.89,7.95-7.91,10.32-.04,20.64,.12,30.95-.08,3.59-.07,5.73,1.19,6.19,3.45,1.8-.38,3.56-.82,5.3-1.25,3.69-.91,7.27-1.79,10.88-1.98,9.8-.51,19.64-.14,29.46-.15,4.16,0,6.34,1.55,6.18,6.21-.28,8.14-.08,16.31-.08,24.46s-1.72,10.87-9.17,11.19c-.63,.04-1.31,.05-2.03,.05h-13.45v10.02c6.61,0,12.91,.03,19.21,0,4.3-.02,6.7,1.4,6.53,6.37-.31,8.65-.09,17.31-.09,25.96,0,7.06-2.58,9.57-9.86,9.58-7.66,.01-15.31,0-22.97,0q-10.72,0-11.17-10.71c-.01-.21-.33-.42-1.4-1.69-1.37,4.06-2.51,7.4-3.56,10.5,8.16,3.17,3.49,10.31,5.12,14.49,1.97-.29,3.88-.68,5.77-.99,1.6-.27,3.19-.47,4.78-.51,9.15-.2,18.32,.18,27.46-.17,4.79-.18,5.96,1.84,5.88,6.08-.17,8.32-.05,16.65-.05,24.97,0,6.25-3.02,10.14-9,10.79Z"/><path class="c" d="M153.04,197.75c-.09-1.55-.18-3.1-.25-4.67-17.09,1.07-32.26-1.49-45.56-11.53-13.36-10.09-21.59-23.45-23.54-39.83-3.81-32,14.04-64.8,58.44-69.87-.5-.6-.81-1.26-1.32-1.54-11.39-6.31-22.33-13.75-34.32-18.55-9.1-3.64-18.62-5.42-28.25-5.07-5.58,.2-11.19,1.12-16.78,2.79-16.01,4.79-28.86,14.4-38.16,27.97-8.53,12.44-10.48,27.22,.24,39.37,7.18,8.14,14.49,16.18,21.46,24.5,8.09,9.65,13.27,20.04,16.09,31.02,3.18,12.35,3.36,25.46,1.32,39.11-1.22,8.16-3.06,16.35-3.5,24.52-.07,1.21-.1,2.42-.1,3.63,.02,9.2,1.48,18.65,3.98,27.52,4.23,14.98,13.12,27.46,24.94,37.55,3.35,2.85,6.85,5.45,10.46,7.89,10.84,7.28,22.65,13.05,34.01,19.54,12,6.87,23.6,14.43,35.76,21.92,14.66-9.01,30.64-18.38,49.02-21.77,8.67-1.6,12.59-7.01,16.42-14.43-3.82-2.3-7.45-4.77-11.33-6.77-11.59-5.98-23.38-11.61-34.92-17.7-11.75-6.19-19.71-16.2-25.45-27.82-5.9-11.96-7.38-24.91-7.38-38.19,0-9.77-.73-19.55-1.28-29.59Z"/><path class="d" d="M332.42,32.1v-.15c0-6.85-3.31-10.48-7.65-14.27-1.1-.96-2.32-1.79-3.5-2.67-11.03-8.26-22.91-12.31-36.67-7.67-15.31,5.16-27.65,14.83-37.51,27.07-16.27,20.19-27.86,42.63-28.03,69.51-.04,6.12,.38,12.17,1.66,17.96,1.38,6.3,3.77,12.29,7.67,17.75,7.89,11.04,17.1,21.13,25.45,31.85,.11,.14,.22,.28,.34,.41,1.67,1.95,3.34,2.38,5.77,2.43,14.45,.28,28.07,3.9,40.75,10.84,13.76,7.53,15.55,24.98,3.53,34.15"/><path class="c" d="M4.82,606.96c.44,1.99,1.22,4.49,2.24,7.73,2.98,0,5.68,.31,8.28-.05,7.61-1.05,12.79,1.03,15.48,9.01,.96,2.84,1.36,4.38-.43,6.79-2.94,3.99-5.44,8.3-7.78,11.93,3.84,4.12,7.12,7.63,10.33,11.06,2.24-1.39,4.42-2.76,6.58-4.1,1.89-1.18,3.76-2.34,5.63-3.5,.28-.17,.64-.31,.95-.29,.77,.04,1.57,.04,2.35,.05,1.35,.02,2.69,.08,3.91,.5,2.11,.72,4.05,2.12,5.83,3.52,1.01,.79,2.11,2.11,2.22,3.28,.29,3.3,.95,6.95-.09,9.91-1.88,5.35-.06,7.22,4.16,8.53,.44,.14,.91,.27,1.4,.4,8.41,2.19,9.05,2.81,12.56-5.68,3.07-7.43,7.6-9.49,15.01-8.56,2.99,.37,4.79,1.01,6.02,3.84,1.95,4.48,4.27,8.79,6.48,13.29,1.11-.37,1.99-.76,2.91-.96,11.61-2.53,11.98-2.54,11.46-14.04-.26-5.91,1.4-9.03,6.91-11.68,4.37-2.09,7.32-2.42,10.82,.74,1.02,.93,2.47,1.38,3.35,1.85,1.77-5.41,3.87-10.55,5.36-15.78,.38-1.33,.71-2.66,1-4,1.54-7.23,3.02-14.47,4.45-21.72,2.16-10.95,4.2-21.93,6.12-32.93,1.58-9.02,2.18-18.21,3.16-27.34,1.34-12.54,2.76-25.09,3.88-37.66,.86-9.65,1.36-19.34,1.86-29.03,.05-1.08-.95-2.23-1.46-3.34-.43,.1-.86,.19-1.3,.29-2.78,43.2-5.88,86.35-14.58,129.56-1.61,8-3.41,16-5.44,24.01-5.76-6.43-10.72-11.98-15.67-17.52-20.78,23.37-46.46,20.45-62.87,10.14-18.76-11.79-25.76-36.11-17.07-57.82,3.88-9.7,10.99-17.16,20.1-22.25,10.02-5.61,21.02-6.42,32.71-4.81-.88-8.57-1.72-16.85-2.57-25.14-2.19-.36-4.58-1.38-6.61-1.38-.53,0-1.03,.07-1.5,.24-4.6,1.68-5.85-.98-7.4-4-2.01-3.92-3.17-9.73-6.33-11.2-3.3-1.53-8.55,1.13-12.94,1.98-.57,.11-1.13,.34-2.17,.65,.42,5.43,.94,10.66,1.13,15.89,.01,.33-.04,.71-.13,1.09-.25,1.04-.85,2.14-1.58,2.6-3.27,2.11-6.69,4.92-10.29,5.29-2.56,.27-5.55-2.86-8.24-4.64-7.74-5.13-7.68-5.12-14.15,1.21-1.53,1.49-3.44,2.58-4.97,3.72,3.35,5.44,6.12,9.65,8.54,14.07,.65,1.18,.76,3.2,.19,4.41-1.3,2.78-3.08,5.35-4.84,7.88-.54,.78-1.64,1.63-2.5,1.65-5.72,.15-11.45,.08-17.43,.08-1.17,4.15-2.52,8.95-3.95,14.02,4.59,2.52,9.2,4.93,13.66,7.59,1.22,.72,2.8,2.24,2.78,3.36-.08,3.46-.57,6.93-1,10.41-.09,.76-.19,1.53-.27,2.29-1.19,.63-2.49,1.35-3.81,2.01-9.68,4.84-11.92,5.96-10.45,12.55Z"/><path class="c" d="M522.75,580.64c.08-1.23,.19-2.03,.19-2.83,.01-36.44,.02-72.89-.01-109.33,0-5.58-2.13-7.6-7.89-7.61-17.81-.03-35.62-.02-53.42-.01-7.47,.01-11.61,4.16-11.61,11.63,0,34.45,0,68.9,0,103.35v4.8h72.74Z"/><path class="d" d="M155.34,197.62c.01,.31,.04,.64,.06,.97,.7,8.85,1.39,17.69,1.97,26.54,.43,6.57,.16,13.24,1.12,19.72,2.56,17.35,10.8,31.78,24.95,42.1,7.02,5.12,15.25,8.62,23,12.7,9.52,5.01,19.11,9.86,28.88,14.89,1.21-4.82,3.29-9.75,3.45-14.88,.1-3.07,.5-6.1,.5-8.98,0-4.73-1.07-9.05-6.23-12.39-.68-.44-1.21-1.13-1.77-1.74-12.61-13.87-20.05-29.93-21-48.84-.16-3.24-.33-6.44-.24-9.68,.01-.24,.01-.48,.02-.72,.09-3.02,.16-6.08-.41-9.05-.25-1.34-.55-2.67-.99-3.95-1.27-3.98-3.18-7.75-5.37-11.29-2.1-3.42-4.5-6.66-7.15-9.66-1.97-2.24-4.1-4.46-6.57-6.16-.31-.21-.86-.61-1.44-.9-.74-.37-1.55-.58-2.01-.07-7.21,6.86-15.56,12.48-25.4,14.58-4.91,1.05-5.55,3.3-5.37,6.81Z"/><path class="c" d="M292.18,302.02c.14-8.63,.04-8.29,9.98-11.82,.72-.25,1.54-.21,2.96-.39-10.6-6.29-16.17-14.69-13.11-19.66,3.92,6.91,6.64,14.96,15.69,16.35,1.51-10.91,1.95-21.66,1.04-32.38-.22-2.53-.51-5.05-.88-7.58-1.27-8.74-3.47-17.48-6.76-26.29-4.82,7.72,2.86,18.17-7.41,22.59-2.4-3.37-4.34-6.61-6.79-9.41-2.27-2.6-4.47-1.63-5.46,1.4-2.84,8.75-.03,15.55,7.99,20,1.07,.6,1.98,1.5,3.78,2.89-6.9,.23-9.87-1.8-15.01-9.66-1.4,5.99-3.05,11.42-3.9,16.98-1.92,12.65-5.86,18.05-17.94,19.47-4.22,.5-8.49,.58-13.25,.86-.44,.02-.89-.01-1.32-.1-2.16-.45-2.18-.61-2.16,.11,.07,1.75,.11,3.51,.12,5.29,.15,14.04-1.62,28.66-10.55,39.47-3.57,4.31-1.11,6.67,2.33,7.81,7.34,2.44,14.85,5.21,22.44,5.8,8.24,.65,16.66-1.07,25.01-1.69,6.94-.51,10.03-1.99,11.06-8.71,.26-1.71,.49-3.42,.69-5.14,.1-.85,.19-1.7,.28-2.55"/><path class="c" d="M291.01,325.63c.74-7.37,.98-14.82,1.14-22.22,.01-.48,.02-.93,.03-1.36"/><path class="c" d="M96.69,382.05c0-5.35-3.71-5.36-7.41-6.08-1.27,1.94-2.45,3.68-3.55,5.46-3.29,5.32-10.03,5.08-13.19-.49q-3.41-6-10.14-3v9.81c-6.5,7.32-11.57,1.96-16.95-.97-1.21,1.18-2.75,2.24-3.73,3.44-1.27,1.55-1.61,3.33,.9,5.91,3.48,3.57,2.41,6.63,.08,10.31-2.4,3.79-5.76,2.83-8.66,2.07-.58-.16-1.07-.26-1.5-.3-1.6-.16-2.24,.56-3.16,2.61-2.04,4.55,.22,6.64,3.78,7.91,3.56,1.26,4.62,3.36,4.51,7.02-.09,3.02-.76,4.98-3.7,6.11-2.24,.87-4.31,2.14-6.04,3.02-.09,5.9,2.13,8.43,6.9,8.35,.59-.01,1.22-.06,1.89-.15,1.76-.24,4.45,.94,5.52,2.36,1.87,2.51,3.12,5.25,.38,8.76-4.33,5.56-3.97,5.84,1.72,10.5,2.03-1.24,4.2-2.4,6.18-3.82,3.96-2.87,6.36,1,9.2,2.28,.84,.38,1,3.22,.77,4.83-.07,.51-.13,.99-.17,1.43-.46,4.37,.55,5.42,5.56,6.64,.73,.17,1.41,.51,2.17,.8,1.29-2.25,2.75-4.11,3.46-6.22,1.1-3.29,3.58-2.77,5.98-2.75,2.57,.03,4.97-.49,6.54,2.86,3.14,6.69,3.4,6.56,10.95,4.22-.15-.86-.34-1.75-.44-2.65-.59-4.93-.04-9.05,5.7-10.97,1.45-.49,2.77-3.05,3.13-4.87,3.22-16.04,8.22-31.45,15.85-46.04-4.37-1.01-5.84-4.69-5.48-8.06,.04-.4,.12-.8,.22-1.2,.7-2.77,2.65-5.3,3.53-7.14-1.77-2.31-3.27-4.27-4.75-6.2-1.53,.93-2.76,1.72-4.02,2.42-7.4,4.12-12.64,1.21-12.06-7.3,.02-.32,.03-.62,.03-.91Z"/><path class="c" d="M520.39,245.18c-.32-.26-.63-.53-.94-.79-11.65,8.57-23.31,17.14-34.96,25.7-.62-.52-1.23-1.05-1.85-1.58,1.6-7.76,3.16-15.54,4.85-23.28,.2-.91,.48-1.89,.55-2.77,.1-1.34-.3-2.43-2.23-2.65-.21-.02-.45,.01-.7,.09-1.39,.45-3.25,2.33-3.77,3.76-4,10.96-8.2,21.91-11.24,33.16-4.26,15.79-7.57,31.83-11.25,47.6,6.08,.96,11.38,1.89,16.72,2.59,2.97,.4,5.2,.24,5.69-4.07,.25-2.2,1.48-4.78,3.1-6.64,.54-.62,1.13-1.16,1.74-1.58,12.85-8.82,17.88-21.42,16.52-36.08-.15-1.67-.13-3.2,.05-4.62,.51-4.33,2.42-7.69,5.12-11.27,4.34-5.75,8.41-11.7,12.6-17.57Z"/><path class="c" d="M117.95,125.3c-.5,3.96-1.21,7.35-1.3,10.75-.17,6.62-1.28,13.59,.33,19.81,2.74,10.59,10.89,17.92,23.39,19.24,7.22,.77,18.77-3.83,23.6-13.8,5.17-10.66,3.55-22.13,4.24-33.31,.05-.81-2.41-2.56-3.71-2.57-15.43-.18-30.87-.12-46.55-.12Z"/><path class="c" d="M311.36,253.89c.43,5.14,.66,10.3,.71,15.45,.05,5.89-.97,11.78-1.17,17.69-.04,1.32,1.03,3.08,2.12,3.97,6.05,4.96,12.27,9.72,18.94,14.93v-107.03c-.77,3.57-1.18,5.77-1.71,7.94-2.87,11.8-10.86,20.67-17.59,30.22-2.07,2.93-2.52,5.57-2.09,9.11,.31,2.57,.58,5.14,.79,7.72Z"/><path class="d" d="M522.57,378.93c2.36-.18,3.56-1.57,3.43-4.39-.22-4.65-.06-9.31-.06-13.96s.25-9.34-.16-13.95c-.12-1.3-2.16-3.41-3.37-3.45-9.3-.29-18.62-.29-27.92,0-.08,0-.16,.01-.24,.03-1.23,.28-3.1,2.25-3.13,3.4-.29,9.3-.35,18.63,.03,27.92,.06,1.54,2.56,4.2,4.02,4.27,8.96,.39,17.95,.25,26.93,.15,.16,0,.32-.01,.47-.02Z"/><path class="d" d="M403.26,378.02c4.74,0,9.49-.03,14.23-.18,1.23-.04,3.39-2.16,3.43-3.37,.29-9.29,.29-18.6,0-27.89-.04-1.22-2.13-3.28-3.41-3.4-4.61-.41-9.29-.16-13.94-.17-4.31,0-8.64,.2-12.95-.05-4.01-.24-5.39,2.07-5.46,5.33-.09,4.07-.14,8.13-.14,12.21s.05,8.14,.16,12.2c.07,2.55,.72,5.33,4.41,5.31,1.83,0,3.66,0,5.5,0,2.72,0,5.44,.02,8.17,.02Z"/><path class="d" d="M437.02,255.88c0,4.32,.22,8.65-.06,12.95-.25,3.87,1.33,5.37,5.05,5.33,7.63-.07,15.27,.01,22.91-.06,1.01-.01,2.66-.32,2.93-.95,1.56-3.71,3.58-7.48,3.99-11.38,.65-6.24,.03-12.6,.24-18.9,.1-3.16-1.16-4.67-4.15-4.69-8.96-.06-17.93-.08-26.89,.02-2.57,.03-4.22,1.13-4.07,4.24,.22,4.47,.06,8.96,.05,13.44Z"/><path class="d" d="M525.94,308.6c0-4.65,.25-9.32-.16-13.94-.12-1.28-2.12-3.29-3.41-3.41-4.44-.42-8.96,.02-13.43-.23-3.02-.18-4.01,1.1-5.17,3.77-2.5,5.74-4.91,11.91-8.99,16.43-3.15,3.5-4,6.55-3.89,10.72,.07,2.92,.97,4.22,4.05,4.17,8.97-.12,17.94-.11,26.9,0,2.97,.04,4.24-1,4.14-4.06-.15-4.48-.04-8.97-.04-13.45Z"/><path class="c" d="M312.3,335.94c6.7,2.49,16.88,6.22,23.71,8.42-.03-.26-.05-.53-.07-.8-.45-4.65-.69-10.26-.84-15.93-.14-5.21-.2-10.46-.27-15.08-.02-1.28-3.55-2.93-4.54-3.73-7.22-5.87-14.57-11.56-21.74-17.2-2.71,.93-5.4,1.84-8.09,2.76,1.74,3.69,2.9,7.93,3.68,12.37,1.44,8.19,1.6,17.05,1.83,24.38,.09,3.02,1.57,3.04,5.62,4.55,.23,.09,.47,.17,.71,.26Z"/><path class="d" d="M456.51,324.02c2.22-11.51,4.32-22.35,6.56-33.93-7.27,0-14.06-.05-20.84,.02-2.9,.03-4.33,1.34-4.27,4.57,.11,5.55,.07,11.11,.07,16.66,0,3.42,.02,6.83,.09,10.24,.03,1.49,1.21,4.12,2.05,4.2,2.56,.25,5.23-.4,7.81-.9,1.29-.26,2.47-1.29,3.75-1.38,1.65-.13,3.34,.34,4.78,.52Z"/><path class="d" d="M490.62,242.59c-.33,6.34-.63,12.23-.94,18.27,1.27,0,1.68,.13,1.88-.02,5.39-3.94,10.73-7.94,16.12-11.88,3.42-2.5,6.79-5.1,10.41-7.24,.47-.28,1.12-.4,1.81-.4,.96,0,2,.24,2.74,.61,.59,.31,.69,2.78,.16,3.86-1.54,3.21-3.33,6.33-5.35,9.26-4.21,6.09-8.64,12.03-13.74,19.09,6.65,0,11.75-.19,16.84,.06,.38,.02,.74,.01,1.07-.01,2.98-.25,4.16-2.26,4.24-4.97,.22-8.31,.2-16.63,.01-24.95-.07-3.32-1.66-5.39-5.62-5.19-.15,0-.29,0-.44,.02-5.5,.25-11.02,.05-16.52,.05h-12.49c-.06,1.16-.12,2.31-.18,3.44Z"/><path class="d" d="M480.27,416.94c9.27,0,18.53,.1,27.78-.14,.99-.03,2.71-1.95,2.77-3.06,.29-5.46,.32-10.96-.01-16.41-.07-1.18-1.98-3.18-3.1-3.22-7.42-.29-14.87-.15-22.17-.15-1.79,7.79-3.48,15.18-5.27,22.98Z"/><path class="c" d="M149.29,177.01c14.31,.59,26-10.82,27.12-22.97,.63-6.86,1.22-13.72,2-20.56,.75-6.53-2.44-12.17-8.04-10.74,.34,1.93,1,3.78,.94,5.61-.17,5.93-.78,11.85-.9,17.78-.31,14.42-5.97,25.22-21.12,30.88Z"/><path class="c" d="M291.01,325.63s0,.02,0,.03"/><path class="c" d="M304.14,306.75c-3.12-5.49-6.28-10.12-8.3-12.07-.62,2.8-3.66,5.07-3.66,7.34"/><path class="c" d="M163.37,122.07c-.33-5.48-1.12-10.72-.84-15.89,.5-9.28-10.13-20.25-21.69-16.88-10.15,2.96-16.21,16.06-10.2,24.78,1-2.41,1.79-4.92,1.75-7.42-.14-10.2,5.97-13.57,12.9-14.16,7.09-.61,13.05,6.12,13.09,14.05,.03,5.11,.01,10.23,.01,15.52h4.98Z"/><path class="d" d="M454.7,186.22c-4.32,0-8.65,.2-12.95-.06-3.8-.23-4.87,1.34-4.79,4.95,.2,8.46,.24,16.94-.01,25.4-.12,3.95,1.86,5.55,5.18,5.63,8.3,.18,16.61,.21,24.91-.03,2.63-.07,5.07-1.07,5.02-4.74-.14-9.13-.1-18.26-.02-27.4,.03-2.8-1.16-3.84-3.89-3.78-4.48,.11-8.97,.03-13.45,.03Z"/><path class="d" d="M541.87,263.15c.05,2.48,.1,4.95,.18,7.43,.04,1.22,2.18,3.36,3.4,3.4,9.28,.28,18.58,.28,27.87,0,1.21-.04,3.36-2.18,3.39-3.4,.29-9.29,.29-18.59,0-27.87-.03-1.22-2.12-3.27-3.41-3.39-4.44-.42-8.94-.16-13.42-.16-4.81,0-9.64-.25-14.42,.16-1.28,.11-3.37,2.17-3.41,3.39-.08,2.47-.13,4.95-.18,7.42-.02,2.16-.04,4.33-.04,6.49s.02,4.35,.04,6.53Z"/><path class="d" d="M560.49,291.08c-4.48,0-8.97,.1-13.44-.03-2.9-.09-4.25,.87-4.21,3.98,.13,8.96,.11,17.92,.01,26.88-.03,2.9,.88,4.25,3.99,4.2,8.95-.12,17.92-.1,26.88,0,2.89,.03,4.24-.88,4.2-3.99-.12-8.96-.15-17.92,.01-26.88,.05-3.37-1.4-4.32-4.5-4.2-4.31,.17-8.63,.04-12.94,.04Z"/><path class="d" d="M541.89,204.12c0,4.49,.15,8.98-.05,13.45-.15,3.4,.96,4.78,4.53,4.7,8.63-.19,17.27-.18,25.91-.01,3.42,.07,4.73-1.04,4.66-4.57-.19-8.63-.22-17.27,.01-25.9,.11-4-2.03-5.44-5.31-5.51-8.46-.17-16.94-.07-25.41-.04-3.25,.01-4.61,1.53-4.41,4.93,.27,4.31,.07,8.64,.07,12.95Z"/><path class="d" d="M542.89,360.52c0,4.49,.22,8.99-.07,13.46-.25,3.77,1.46,5.04,4.86,5.03,8.31-.02,16.62-.07,24.93,.02,3.83,.04,5.34-1.71,5.3-5.44-.1-8.81-.1-17.62,0-26.43,.04-2.92-.92-4.23-4.01-4.19-8.98,.12-17.96,.12-26.93,0-2.99-.03-4.22,1.05-4.12,4.09,.15,4.48,.04,8.97,.04,13.46Z"/><path class="d" d="M420.08,203.72c0-4.32-.17-8.65,.06-12.96,.18-3.52-1.19-4.67-4.64-4.6-8.47,.18-16.96,.25-25.43-.02-4.48-.14-5.91,2.11-5.95,5.91-.08,8.14-.01,16.29-.03,24.43,0,3.56,1.77,5.63,5.28,5.68,8.48,.12,16.96,.15,25.43-.02,3.26-.06,5.58-1.44,5.34-5.46-.25-4.31-.06-8.64-.06-12.96Z"/><path class="d" d="M403.21,326.07c4.66,0,9.32-.08,13.97,.03,2.72,.06,3.95-.93,3.93-3.76-.08-9.15-.05-18.3-.02-27.45,.01-3.31-1.62-4.82-4.88-4.81-8.49,.02-16.97,0-25.46,0-3.58,0-5.57,1.85-5.62,5.36-.1,8.48-.15,16.97,.03,25.45,.07,3.31,1.58,5.51,5.58,5.24,4.14-.27,8.31-.06,12.47-.06Z"/><path class="d" d="M507.23,222.21c4.32,0,8.65-.23,12.95,.07,3.93,.26,5.61-1.78,5.69-5.12,.2-8.3,.21-16.62-.01-24.92-.08-2.94-1-5.98-4.95-6-8.64-.04-17.28-.15-25.91,.07-2.63,.07-5.13,1.01-5.08,4.68,.12,9.14,.09,18.28,.01,27.41-.03,2.77,1.08,3.9,3.84,3.84,4.48-.11,8.97-.03,13.46-.03Z"/><path class="d" d="M402.4,238.15c-3.99,0-8,.24-11.97-.06-4.59-.35-6.31,1.87-6.33,6.04-.02,7.98,.02,15.97-.02,23.95-.01,4.05,1.88,6.07,5.96,6.07,8.32-.03,16.63-.05,24.95,.01,3.53,.02,5.14-1.56,5.11-5.1-.06-8.65-.05-17.3,0-25.94,.02-3.61-1.76-5.05-5.23-4.99-4.15,.08-8.31,.02-12.47,.02Z"/><path class="c" d="M78.69,398.98c15.53-1.64,27.92,12.74,27.83,27.69-.08,14.4-12.09,27.7-28.98,27.41-12.94-.23-27.12-11.97-26.91-28.2,.18-13.8,11.9-28.7,28.06-26.9Z"/><path class="c" d="M78.26,450.91c13.67,.89,25.22-11.75,25.33-24.03,.13-13.95-11.17-25.63-24.46-25.66-14.2-.03-24.86,9.82-25.4,24.59-.55,15.13,12.11,25.52,24.53,25.1Z"/></g></svg>